<mxfile host="65bd71144e">
    <diagram id="35rbz2cMFURh9ewFK-A6" name="Page-1">
        <mxGraphModel dx="987" dy="1845" grid="1" gridSize="10" guides="1" tooltips="1" connect="1" arrows="1" fold="1" page="1" pageScale="1" pageWidth="850" pageHeight="1100" background="#ffffff" math="0" shadow="0">
            <root>
                <mxCell id="0"/>
                <mxCell id="1" parent="0"/>
                <mxCell id="106" style="edgeStyle=none;html=1;" parent="1" source="2" edge="1">
                    <mxGeometry relative="1" as="geometry">
                        <mxPoint x="370" y="110" as="targetPoint"/>
                    </mxGeometry>
                </mxCell>
                <mxCell id="115" style="edgeStyle=none;html=1;entryX=0.5;entryY=1;entryDx=0;entryDy=0;exitX=0.5;exitY=0;exitDx=0;exitDy=0;fillColor=#6a00ff;strokeColor=#3700CC;strokeWidth=2;" parent="1" source="2" target="108" edge="1">
                    <mxGeometry relative="1" as="geometry">
                        <Array as="points">
                            <mxPoint x="370" y="120"/>
                            <mxPoint x="1430" y="120"/>
                        </Array>
                    </mxGeometry>
                </mxCell>
                <mxCell id="2" value="CacherModel" style="swimlane;whiteSpace=wrap;html=1;fillColor=#0050ef;fontColor=#ffffff;strokeColor=#001DBC;strokeWidth=2;" parent="1" vertex="1">
                    <mxGeometry x="140" y="180" width="460" height="300" as="geometry"/>
                </mxCell>
                <mxCell id="3" value="Attributes" style="swimlane;fontStyle=0;childLayout=stackLayout;horizontal=1;startSize=30;horizontalStack=0;resizeParent=1;resizeParentMax=0;resizeLast=0;collapsible=1;marginBottom=0;whiteSpace=wrap;html=1;strokeWidth=2;fillColor=#008a00;fontColor=#ffffff;strokeColor=#005700;" parent="2" vertex="1">
                    <mxGeometry x="10" y="30" width="430" height="60" as="geometry"/>
                </mxCell>
                <mxCell id="5" value="&lt;font color=&quot;#000000&quot; style=&quot;font-size: 15px;&quot;&gt;# connectRef: Connection&lt;br style=&quot;font-size: 15px;&quot;&gt;&lt;/font&gt;" style="text;strokeColor=#4C0099;fillColor=none;align=left;verticalAlign=middle;spacingLeft=4;spacingRight=4;overflow=hidden;points=[[0,0.5],[1,0.5]];portConstraint=eastwest;rotatable=0;whiteSpace=wrap;html=1;strokeWidth=2;fontSize=15;" parent="3" vertex="1">
                    <mxGeometry y="30" width="430" height="30" as="geometry"/>
                </mxCell>
                <mxCell id="7" value="Methods" style="swimlane;fontStyle=0;childLayout=stackLayout;horizontal=1;startSize=30;horizontalStack=0;resizeParent=1;resizeParentMax=0;resizeLast=0;collapsible=1;marginBottom=0;whiteSpace=wrap;html=1;strokeWidth=2;fillColor=#1ba1e2;fontColor=#ffffff;strokeColor=#006EAF;" parent="2" vertex="1">
                    <mxGeometry x="10" y="110" width="430" height="170" as="geometry"/>
                </mxCell>
                <mxCell id="107" value="&lt;font color=&quot;#000000&quot; style=&quot;font-size: 15px;&quot;&gt;- addNewCacher(Cacher cacher): void&lt;br style=&quot;font-size: 15px;&quot;&gt;&lt;/font&gt;" style="text;strokeColor=#4C0099;fillColor=none;align=left;verticalAlign=middle;spacingLeft=4;spacingRight=4;overflow=hidden;points=[[0,0.5],[1,0.5]];portConstraint=eastwest;rotatable=0;whiteSpace=wrap;html=1;strokeWidth=2;fontSize=15;" parent="7" vertex="1">
                    <mxGeometry y="30" width="430" height="30" as="geometry"/>
                </mxCell>
                <mxCell id="117" value="&lt;font color=&quot;#000000&quot; style=&quot;font-size: 15px;&quot;&gt;+ getAllCachers(): ResultSet&lt;br style=&quot;font-size: 15px;&quot;&gt;&lt;/font&gt;" style="text;strokeColor=#4C0099;fillColor=none;align=left;verticalAlign=middle;spacingLeft=4;spacingRight=4;overflow=hidden;points=[[0,0.5],[1,0.5]];portConstraint=eastwest;rotatable=0;whiteSpace=wrap;html=1;strokeWidth=2;fontSize=15;" parent="7" vertex="1">
                    <mxGeometry y="60" width="430" height="30" as="geometry"/>
                </mxCell>
                <mxCell id="146" value="&lt;font color=&quot;#000000&quot; style=&quot;font-size: 15px;&quot;&gt;+ getCacherWithId(int id): ResultSet&lt;br style=&quot;font-size: 15px;&quot;&gt;&lt;/font&gt;" style="text;strokeColor=#4C0099;fillColor=none;align=left;verticalAlign=middle;spacingLeft=4;spacingRight=4;overflow=hidden;points=[[0,0.5],[1,0.5]];portConstraint=eastwest;rotatable=0;whiteSpace=wrap;html=1;strokeWidth=2;fontSize=15;" parent="7" vertex="1">
                    <mxGeometry y="90" width="430" height="40" as="geometry"/>
                </mxCell>
                <mxCell id="143" value="&lt;font color=&quot;#000000&quot; style=&quot;font-size: 15px;&quot;&gt;+ getCacherId(Cacher cacher): ResultSet&lt;br style=&quot;font-size: 15px;&quot;&gt;&lt;/font&gt;" style="text;strokeColor=#4C0099;fillColor=none;align=left;verticalAlign=middle;spacingLeft=4;spacingRight=4;overflow=hidden;points=[[0,0.5],[1,0.5]];portConstraint=eastwest;rotatable=0;whiteSpace=wrap;html=1;strokeWidth=2;fontSize=15;" parent="7" vertex="1">
                    <mxGeometry y="130" width="430" height="40" as="geometry"/>
                </mxCell>
                <mxCell id="377" style="edgeStyle=orthogonalEdgeStyle;html=1;entryX=0.5;entryY=1;entryDx=0;entryDy=0;fillColor=#0050ef;strokeColor=#001DBC;strokeWidth=2;" parent="1" source="108" target="369" edge="1">
                    <mxGeometry relative="1" as="geometry"/>
                </mxCell>
                <mxCell id="108" value="MainModel" style="swimlane;whiteSpace=wrap;html=1;fillColor=#0050ef;fontColor=#ffffff;strokeColor=#001DBC;strokeWidth=2;" parent="1" vertex="1">
                    <mxGeometry x="1200" y="-200" width="460" height="270" as="geometry"/>
                </mxCell>
                <mxCell id="109" value="Attributes" style="swimlane;fontStyle=0;childLayout=stackLayout;horizontal=1;startSize=30;horizontalStack=0;resizeParent=1;resizeParentMax=0;resizeLast=0;collapsible=1;marginBottom=0;whiteSpace=wrap;html=1;strokeWidth=2;fillColor=#008a00;fontColor=#ffffff;strokeColor=#005700;" parent="108" vertex="1">
                    <mxGeometry x="10" y="30" width="430" height="90" as="geometry"/>
                </mxCell>
                <mxCell id="113" value="&lt;font color=&quot;#000000&quot; style=&quot;font-size: 15px;&quot;&gt;# connectRef: Connection&lt;br style=&quot;font-size: 15px;&quot;&gt;&lt;/font&gt;" style="text;strokeColor=#4C0099;fillColor=none;align=left;verticalAlign=middle;spacingLeft=4;spacingRight=4;overflow=hidden;points=[[0,0.5],[1,0.5]];portConstraint=eastwest;rotatable=0;whiteSpace=wrap;html=1;strokeWidth=2;fontSize=15;" parent="109" vertex="1">
                    <mxGeometry y="30" width="430" height="30" as="geometry"/>
                </mxCell>
                <mxCell id="110" value="&lt;font color=&quot;#000000&quot; style=&quot;font-size: 15px;&quot;&gt;- dbFilePath: String&lt;br style=&quot;font-size: 15px;&quot;&gt;&lt;/font&gt;" style="text;strokeColor=#4C0099;fillColor=none;align=left;verticalAlign=middle;spacingLeft=4;spacingRight=4;overflow=hidden;points=[[0,0.5],[1,0.5]];portConstraint=eastwest;rotatable=0;whiteSpace=wrap;html=1;strokeWidth=2;fontSize=15;" parent="109" vertex="1">
                    <mxGeometry y="60" width="430" height="30" as="geometry"/>
                </mxCell>
                <mxCell id="111" value="Methods" style="swimlane;fontStyle=0;childLayout=stackLayout;horizontal=1;startSize=30;horizontalStack=0;resizeParent=1;resizeParentMax=0;resizeLast=0;collapsible=1;marginBottom=0;whiteSpace=wrap;html=1;strokeWidth=2;fillColor=#1ba1e2;fontColor=#ffffff;strokeColor=#006EAF;" parent="108" vertex="1">
                    <mxGeometry x="10" y="160" width="430" height="90" as="geometry"/>
                </mxCell>
                <mxCell id="114" value="&lt;font color=&quot;#000000&quot; style=&quot;font-size: 15px;&quot;&gt;- connectToDB(): void&lt;br style=&quot;font-size: 15px;&quot;&gt;&lt;/font&gt;" style="text;strokeColor=#4C0099;fillColor=none;align=left;verticalAlign=middle;spacingLeft=4;spacingRight=4;overflow=hidden;points=[[0,0.5],[1,0.5]];portConstraint=eastwest;rotatable=0;whiteSpace=wrap;html=1;strokeWidth=2;fontSize=15;" parent="111" vertex="1">
                    <mxGeometry y="30" width="430" height="30" as="geometry"/>
                </mxCell>
                <mxCell id="112" value="&lt;font color=&quot;#000000&quot; style=&quot;font-size: 15px;&quot;&gt;+ prepareDB(): void&lt;br style=&quot;font-size: 15px;&quot;&gt;&lt;/font&gt;" style="text;strokeColor=#4C0099;fillColor=none;align=left;verticalAlign=middle;spacingLeft=4;spacingRight=4;overflow=hidden;points=[[0,0.5],[1,0.5]];portConstraint=eastwest;rotatable=0;whiteSpace=wrap;html=1;strokeWidth=2;fontSize=15;" parent="111" vertex="1">
                    <mxGeometry y="60" width="430" height="30" as="geometry"/>
                </mxCell>
                <mxCell id="118" value="OrderModel" style="swimlane;whiteSpace=wrap;html=1;fillColor=#0050ef;fontColor=#ffffff;strokeColor=#001DBC;strokeWidth=2;" parent="1" vertex="1">
                    <mxGeometry x="640" y="180" width="840" height="270" as="geometry"/>
                </mxCell>
                <mxCell id="119" value="Attributes" style="swimlane;fontStyle=0;childLayout=stackLayout;horizontal=1;startSize=30;horizontalStack=0;resizeParent=1;resizeParentMax=0;resizeLast=0;collapsible=1;marginBottom=0;whiteSpace=wrap;html=1;strokeWidth=2;fillColor=#008a00;fontColor=#ffffff;strokeColor=#005700;" parent="118" vertex="1">
                    <mxGeometry x="10" y="30" width="810" height="60" as="geometry"/>
                </mxCell>
                <mxCell id="120" value="&lt;font color=&quot;#000000&quot; style=&quot;font-size: 15px;&quot;&gt;# connectRef: Connection&lt;br style=&quot;font-size: 15px;&quot;&gt;&lt;/font&gt;" style="text;strokeColor=#4C0099;fillColor=none;align=left;verticalAlign=middle;spacingLeft=4;spacingRight=4;overflow=hidden;points=[[0,0.5],[1,0.5]];portConstraint=eastwest;rotatable=0;whiteSpace=wrap;html=1;strokeWidth=2;fontSize=15;" parent="119" vertex="1">
                    <mxGeometry y="30" width="810" height="30" as="geometry"/>
                </mxCell>
                <mxCell id="121" value="Methods" style="swimlane;fontStyle=0;childLayout=stackLayout;horizontal=1;startSize=30;horizontalStack=0;resizeParent=1;resizeParentMax=0;resizeLast=0;collapsible=1;marginBottom=0;whiteSpace=wrap;html=1;strokeWidth=2;fillColor=#1ba1e2;fontColor=#ffffff;strokeColor=#006EAF;" parent="118" vertex="1">
                    <mxGeometry x="10" y="110" width="810" height="150" as="geometry"/>
                </mxCell>
                <mxCell id="122" value="&lt;font color=&quot;#000000&quot; style=&quot;font-size: 15px;&quot;&gt;+ addNewOrder(Order order): bolean&lt;br style=&quot;font-size: 15px;&quot;&gt;&lt;/font&gt;" style="text;strokeColor=#4C0099;fillColor=none;align=left;verticalAlign=middle;spacingLeft=4;spacingRight=4;overflow=hidden;points=[[0,0.5],[1,0.5]];portConstraint=eastwest;rotatable=0;whiteSpace=wrap;html=1;strokeWidth=2;fontSize=15;" parent="121" vertex="1">
                    <mxGeometry y="30" width="810" height="30" as="geometry"/>
                </mxCell>
                <mxCell id="123" value="&lt;font color=&quot;#000000&quot; style=&quot;font-size: 15px;&quot;&gt;+ getTotalPriceFor&lt;/font&gt;&lt;span style=&quot;color: rgb(0, 0, 0);&quot;&gt;AllOrdersIn&lt;/span&gt;&lt;font color=&quot;#000000&quot; style=&quot;font-size: 15px;&quot;&gt;SpecificPeriod(Date date1, Date date2): ResultSet&amp;nbsp;&lt;br style=&quot;font-size: 15px;&quot;&gt;&lt;/font&gt;" style="text;strokeColor=#4C0099;fillColor=none;align=left;verticalAlign=middle;spacingLeft=4;spacingRight=4;overflow=hidden;points=[[0,0.5],[1,0.5]];portConstraint=eastwest;rotatable=0;whiteSpace=wrap;html=1;strokeWidth=2;fontSize=15;" parent="121" vertex="1">
                    <mxGeometry y="60" width="810" height="50" as="geometry"/>
                </mxCell>
                <mxCell id="124" value="&lt;font color=&quot;#000000&quot; style=&quot;font-size: 15px;&quot;&gt;+ getTotalPriceForOrdersInSpeceficPeriodForSpecificCacher(Date, date1, Date date2, Cacher cacher): ResultSet&lt;br style=&quot;font-size: 15px;&quot;&gt;&lt;/font&gt;" style="text;strokeColor=#4C0099;fillColor=none;align=left;verticalAlign=middle;spacingLeft=4;spacingRight=4;overflow=hidden;points=[[0,0.5],[1,0.5]];portConstraint=eastwest;rotatable=0;whiteSpace=wrap;html=1;strokeWidth=2;fontSize=15;" parent="121" vertex="1">
                    <mxGeometry y="110" width="810" height="40" as="geometry"/>
                </mxCell>
                <mxCell id="125" style="edgeStyle=none;html=1;entryX=0.5;entryY=1;entryDx=0;entryDy=0;fillColor=#6a00ff;strokeColor=#3700CC;strokeWidth=2;exitX=0.5;exitY=0;exitDx=0;exitDy=0;" parent="1" source="118" target="108" edge="1">
                    <mxGeometry relative="1" as="geometry">
                        <mxPoint x="860" y="170" as="sourcePoint"/>
                        <mxPoint x="1130" y="100" as="targetPoint"/>
                        <Array as="points">
                            <mxPoint x="1060" y="120"/>
                            <mxPoint x="1430" y="120"/>
                        </Array>
                    </mxGeometry>
                </mxCell>
                <mxCell id="133" value="ProductModel" style="swimlane;whiteSpace=wrap;html=1;fillColor=#0050ef;fontColor=#ffffff;strokeColor=#001DBC;strokeWidth=2;" parent="1" vertex="1">
                    <mxGeometry x="2430" y="180" width="840" height="230" as="geometry"/>
                </mxCell>
                <mxCell id="134" value="Attributes" style="swimlane;fontStyle=0;childLayout=stackLayout;horizontal=1;startSize=30;horizontalStack=0;resizeParent=1;resizeParentMax=0;resizeLast=0;collapsible=1;marginBottom=0;whiteSpace=wrap;html=1;strokeWidth=2;fillColor=#008a00;fontColor=#ffffff;strokeColor=#005700;" parent="133" vertex="1">
                    <mxGeometry x="10" y="30" width="810" height="60" as="geometry"/>
                </mxCell>
                <mxCell id="135" value="&lt;font color=&quot;#000000&quot; style=&quot;font-size: 15px;&quot;&gt;# connectRef: Connection&lt;br style=&quot;font-size: 15px;&quot;&gt;&lt;/font&gt;" style="text;strokeColor=#4C0099;fillColor=none;align=left;verticalAlign=middle;spacingLeft=4;spacingRight=4;overflow=hidden;points=[[0,0.5],[1,0.5]];portConstraint=eastwest;rotatable=0;whiteSpace=wrap;html=1;strokeWidth=2;fontSize=15;" parent="134" vertex="1">
                    <mxGeometry y="30" width="810" height="30" as="geometry"/>
                </mxCell>
                <mxCell id="136" value="Methods" style="swimlane;fontStyle=0;childLayout=stackLayout;horizontal=1;startSize=30;horizontalStack=0;resizeParent=1;resizeParentMax=0;resizeLast=0;collapsible=1;marginBottom=0;whiteSpace=wrap;html=1;strokeWidth=2;fillColor=#1ba1e2;fontColor=#ffffff;strokeColor=#006EAF;" parent="133" vertex="1">
                    <mxGeometry x="10" y="110" width="810" height="110" as="geometry"/>
                </mxCell>
                <mxCell id="139" value="&lt;font color=&quot;#000000&quot; style=&quot;font-size: 15px;&quot;&gt;+ getAllProducts(): ResultSet&lt;br style=&quot;font-size: 15px;&quot;&gt;&lt;/font&gt;" style="text;strokeColor=#4C0099;fillColor=none;align=left;verticalAlign=middle;spacingLeft=4;spacingRight=4;overflow=hidden;points=[[0,0.5],[1,0.5]];portConstraint=eastwest;rotatable=0;whiteSpace=wrap;html=1;strokeWidth=2;fontSize=15;" parent="136" vertex="1">
                    <mxGeometry y="30" width="810" height="40" as="geometry"/>
                </mxCell>
                <mxCell id="144" value="&lt;font color=&quot;#000000&quot; style=&quot;font-size: 15px;&quot;&gt;+ getProductWithId(int id): ResultSet&lt;br style=&quot;font-size: 15px;&quot;&gt;&lt;/font&gt;" style="text;strokeColor=#4C0099;fillColor=none;align=left;verticalAlign=middle;spacingLeft=4;spacingRight=4;overflow=hidden;points=[[0,0.5],[1,0.5]];portConstraint=eastwest;rotatable=0;whiteSpace=wrap;html=1;strokeWidth=2;fontSize=15;" parent="136" vertex="1">
                    <mxGeometry y="70" width="810" height="40" as="geometry"/>
                </mxCell>
                <mxCell id="148" value="SubOrderModel" style="swimlane;whiteSpace=wrap;html=1;fillColor=#0050ef;fontColor=#ffffff;strokeColor=#001DBC;strokeWidth=2;" parent="1" vertex="1">
                    <mxGeometry x="1550" y="180" width="840" height="180" as="geometry"/>
                </mxCell>
                <mxCell id="149" value="Attributes" style="swimlane;fontStyle=0;childLayout=stackLayout;horizontal=1;startSize=30;horizontalStack=0;resizeParent=1;resizeParentMax=0;resizeLast=0;collapsible=1;marginBottom=0;whiteSpace=wrap;html=1;strokeWidth=2;fillColor=#008a00;fontColor=#ffffff;strokeColor=#005700;" parent="148" vertex="1">
                    <mxGeometry x="10" y="30" width="810" height="60" as="geometry"/>
                </mxCell>
                <mxCell id="150" value="&lt;font color=&quot;#000000&quot; style=&quot;font-size: 15px;&quot;&gt;# connectRef: Connection&lt;br style=&quot;font-size: 15px;&quot;&gt;&lt;/font&gt;" style="text;strokeColor=#4C0099;fillColor=none;align=left;verticalAlign=middle;spacingLeft=4;spacingRight=4;overflow=hidden;points=[[0,0.5],[1,0.5]];portConstraint=eastwest;rotatable=0;whiteSpace=wrap;html=1;strokeWidth=2;fontSize=15;" parent="149" vertex="1">
                    <mxGeometry y="30" width="810" height="30" as="geometry"/>
                </mxCell>
                <mxCell id="151" value="Methods" style="swimlane;fontStyle=0;childLayout=stackLayout;horizontal=1;startSize=30;horizontalStack=0;resizeParent=1;resizeParentMax=0;resizeLast=0;collapsible=1;marginBottom=0;whiteSpace=wrap;html=1;strokeWidth=2;fillColor=#1ba1e2;fontColor=#ffffff;strokeColor=#006EAF;" parent="148" vertex="1">
                    <mxGeometry x="10" y="110" width="810" height="60" as="geometry"/>
                </mxCell>
                <mxCell id="152" value="&lt;font color=&quot;#000000&quot; style=&quot;font-size: 15px;&quot;&gt;+ addNewSubOrder(SubOrder subOrder): void&lt;br style=&quot;font-size: 15px;&quot;&gt;&lt;/font&gt;" style="text;strokeColor=#4C0099;fillColor=none;align=left;verticalAlign=middle;spacingLeft=4;spacingRight=4;overflow=hidden;points=[[0,0.5],[1,0.5]];portConstraint=eastwest;rotatable=0;whiteSpace=wrap;html=1;strokeWidth=2;fontSize=15;" parent="151" vertex="1">
                    <mxGeometry y="30" width="810" height="30" as="geometry"/>
                </mxCell>
                <mxCell id="157" style="edgeStyle=none;html=1;entryX=0.5;entryY=1;entryDx=0;entryDy=0;fillColor=#6a00ff;strokeColor=#3700CC;strokeWidth=2;exitX=0.5;exitY=0;exitDx=0;exitDy=0;" parent="1" source="148" target="108" edge="1">
                    <mxGeometry relative="1" as="geometry">
                        <mxPoint x="1589.9999999999995" y="160" as="sourcePoint"/>
                        <mxPoint x="1960" y="50" as="targetPoint"/>
                        <Array as="points">
                            <mxPoint x="1970" y="120"/>
                            <mxPoint x="1430" y="120"/>
                        </Array>
                    </mxGeometry>
                </mxCell>
                <mxCell id="158" style="edgeStyle=none;html=1;entryX=0.5;entryY=1;entryDx=0;entryDy=0;fillColor=#6a00ff;strokeColor=#3700CC;strokeWidth=2;" parent="1" target="108" edge="1">
                    <mxGeometry relative="1" as="geometry">
                        <mxPoint x="2850" y="180" as="sourcePoint"/>
                        <mxPoint x="2310" y="70" as="targetPoint"/>
                        <Array as="points">
                            <mxPoint x="2850" y="120"/>
                            <mxPoint x="1430" y="120"/>
                        </Array>
                    </mxGeometry>
                </mxCell>
                <mxCell id="399" style="edgeStyle=orthogonalEdgeStyle;html=1;strokeWidth=2;endArrow=diamond;endFill=1;fillColor=#a20025;strokeColor=#6F0000;" parent="1" source="159" edge="1">
                    <mxGeometry relative="1" as="geometry">
                        <mxPoint x="1360" y="1390" as="targetPoint"/>
                        <Array as="points">
                            <mxPoint x="330" y="2190"/>
                            <mxPoint x="1360" y="2190"/>
                        </Array>
                    </mxGeometry>
                </mxCell>
                <mxCell id="402" style="edgeStyle=orthogonalEdgeStyle;html=1;entryX=0.5;entryY=1;entryDx=0;entryDy=0;strokeWidth=2;startArrow=none;startFill=0;endArrow=diamond;endFill=1;fillColor=#6a00ff;strokeColor=#3700CC;" parent="1" source="159" target="346" edge="1">
                    <mxGeometry relative="1" as="geometry"/>
                </mxCell>
                <mxCell id="403" style="edgeStyle=orthogonalEdgeStyle;html=1;entryX=0.5;entryY=1;entryDx=0;entryDy=0;strokeWidth=2;startArrow=none;startFill=0;endArrow=diamond;endFill=1;fillColor=#6a00ff;strokeColor=#3700CC;" parent="1" source="159" target="310" edge="1">
                    <mxGeometry relative="1" as="geometry">
                        <Array as="points">
                            <mxPoint x="330" y="2150"/>
                            <mxPoint x="845" y="2150"/>
                        </Array>
                    </mxGeometry>
                </mxCell>
                <mxCell id="404" style="edgeStyle=orthogonalEdgeStyle;html=1;strokeWidth=2;startArrow=none;startFill=0;endArrow=diamond;endFill=1;fillColor=#008a00;strokeColor=#005700;entryX=0.25;entryY=1;entryDx=0;entryDy=0;" parent="1" source="159" target="358" edge="1">
                    <mxGeometry relative="1" as="geometry">
                        <mxPoint x="810" y="1250" as="targetPoint"/>
                        <Array as="points">
                            <mxPoint x="330" y="2110"/>
                            <mxPoint x="1110" y="2110"/>
                            <mxPoint x="1110" y="1330"/>
                            <mxPoint x="743" y="1330"/>
                        </Array>
                    </mxGeometry>
                </mxCell>
                <mxCell id="159" value="Cacher" style="swimlane;whiteSpace=wrap;html=1;fillColor=#0050ef;fontColor=#ffffff;strokeColor=#001DBC;strokeWidth=2;" parent="1" vertex="1">
                    <mxGeometry x="100" y="2240" width="460" height="290" as="geometry"/>
                </mxCell>
                <mxCell id="160" value="Attributes" style="swimlane;fontStyle=0;childLayout=stackLayout;horizontal=1;startSize=30;horizontalStack=0;resizeParent=1;resizeParentMax=0;resizeLast=0;collapsible=1;marginBottom=0;whiteSpace=wrap;html=1;strokeWidth=2;fillColor=#008a00;fontColor=#ffffff;strokeColor=#005700;" parent="159" vertex="1">
                    <mxGeometry x="10" y="30" width="430" height="120" as="geometry"/>
                </mxCell>
                <mxCell id="161" value="&lt;font color=&quot;#000000&quot; style=&quot;font-size: 15px;&quot;&gt;- name: String&lt;br style=&quot;font-size: 15px;&quot;&gt;&lt;/font&gt;" style="text;strokeColor=#4C0099;fillColor=none;align=left;verticalAlign=middle;spacingLeft=4;spacingRight=4;overflow=hidden;points=[[0,0.5],[1,0.5]];portConstraint=eastwest;rotatable=0;whiteSpace=wrap;html=1;strokeWidth=2;fontSize=15;" parent="160" vertex="1">
                    <mxGeometry y="30" width="430" height="30" as="geometry"/>
                </mxCell>
                <mxCell id="166" value="&lt;font color=&quot;#000000&quot; style=&quot;font-size: 15px;&quot;&gt;- password: String&lt;br style=&quot;font-size: 15px;&quot;&gt;&lt;/font&gt;" style="text;strokeColor=#4C0099;fillColor=none;align=left;verticalAlign=middle;spacingLeft=4;spacingRight=4;overflow=hidden;points=[[0,0.5],[1,0.5]];portConstraint=eastwest;rotatable=0;whiteSpace=wrap;html=1;strokeWidth=2;fontSize=15;" parent="160" vertex="1">
                    <mxGeometry y="60" width="430" height="30" as="geometry"/>
                </mxCell>
                <mxCell id="162" value="&lt;font color=&quot;#000000&quot; style=&quot;font-size: 15px;&quot;&gt;- id: int&lt;br style=&quot;font-size: 15px;&quot;&gt;&lt;/font&gt;" style="text;strokeColor=#4C0099;fillColor=none;align=left;verticalAlign=middle;spacingLeft=4;spacingRight=4;overflow=hidden;points=[[0,0.5],[1,0.5]];portConstraint=eastwest;rotatable=0;whiteSpace=wrap;html=1;strokeWidth=2;fontSize=15;" parent="160" vertex="1">
                    <mxGeometry y="90" width="430" height="30" as="geometry"/>
                </mxCell>
                <mxCell id="163" value="Methods" style="swimlane;fontStyle=0;childLayout=stackLayout;horizontal=1;startSize=30;horizontalStack=0;resizeParent=1;resizeParentMax=0;resizeLast=0;collapsible=1;marginBottom=0;whiteSpace=wrap;html=1;strokeWidth=2;fillColor=#1ba1e2;fontColor=#ffffff;strokeColor=#006EAF;" parent="159" vertex="1">
                    <mxGeometry x="10" y="160" width="430" height="120" as="geometry"/>
                </mxCell>
                <mxCell id="164" value="&lt;font color=&quot;#000000&quot; style=&quot;font-size: 15px;&quot;&gt;+ getName(): String&lt;br style=&quot;font-size: 15px;&quot;&gt;&lt;/font&gt;" style="text;strokeColor=#4C0099;fillColor=none;align=left;verticalAlign=middle;spacingLeft=4;spacingRight=4;overflow=hidden;points=[[0,0.5],[1,0.5]];portConstraint=eastwest;rotatable=0;whiteSpace=wrap;html=1;strokeWidth=2;fontSize=15;" parent="163" vertex="1">
                    <mxGeometry y="30" width="430" height="30" as="geometry"/>
                </mxCell>
                <mxCell id="165" value="&lt;font color=&quot;#000000&quot; style=&quot;font-size: 15px;&quot;&gt;+ getPassword(): String&lt;br style=&quot;font-size: 15px;&quot;&gt;&lt;/font&gt;" style="text;strokeColor=#4C0099;fillColor=none;align=left;verticalAlign=middle;spacingLeft=4;spacingRight=4;overflow=hidden;points=[[0,0.5],[1,0.5]];portConstraint=eastwest;rotatable=0;whiteSpace=wrap;html=1;strokeWidth=2;fontSize=15;" parent="163" vertex="1">
                    <mxGeometry y="60" width="430" height="30" as="geometry"/>
                </mxCell>
                <mxCell id="167" value="&lt;font color=&quot;#000000&quot; style=&quot;font-size: 15px;&quot;&gt;+ getId(): int&lt;br style=&quot;font-size: 15px;&quot;&gt;&lt;/font&gt;" style="text;strokeColor=#4C0099;fillColor=none;align=left;verticalAlign=middle;spacingLeft=4;spacingRight=4;overflow=hidden;points=[[0,0.5],[1,0.5]];portConstraint=eastwest;rotatable=0;whiteSpace=wrap;html=1;strokeWidth=2;fontSize=15;" parent="163" vertex="1">
                    <mxGeometry y="90" width="430" height="30" as="geometry"/>
                </mxCell>
                <mxCell id="398" style="edgeStyle=orthogonalEdgeStyle;html=1;strokeWidth=2;endArrow=diamond;endFill=1;fillColor=#6a00ff;strokeColor=#3700CC;entryX=0.75;entryY=0;entryDx=0;entryDy=0;" parent="1" source="173" target="197" edge="1">
                    <mxGeometry relative="1" as="geometry">
                        <mxPoint x="2070" y="2220" as="targetPoint"/>
                        <Array as="points">
                            <mxPoint x="2510" y="2210"/>
                            <mxPoint x="2085" y="2210"/>
                        </Array>
                    </mxGeometry>
                </mxCell>
                <mxCell id="428" style="edgeStyle=orthogonalEdgeStyle;html=1;entryX=0.5;entryY=1;entryDx=0;entryDy=0;strokeWidth=2;endArrow=diamond;endFill=1;fillColor=#008a00;strokeColor=#005700;" parent="1" source="173" target="406" edge="1">
                    <mxGeometry relative="1" as="geometry">
                        <Array as="points">
                            <mxPoint x="2510" y="2180"/>
                            <mxPoint x="1900" y="2180"/>
                        </Array>
                    </mxGeometry>
                </mxCell>
                <mxCell id="173" value="Product" style="swimlane;whiteSpace=wrap;html=1;fillColor=#0050ef;fontColor=#ffffff;strokeColor=#001DBC;strokeWidth=2;" parent="1" vertex="1">
                    <mxGeometry x="2280" y="2240" width="460" height="360" as="geometry"/>
                </mxCell>
                <mxCell id="174" value="Attributes" style="swimlane;fontStyle=0;childLayout=stackLayout;horizontal=1;startSize=30;horizontalStack=0;resizeParent=1;resizeParentMax=0;resizeLast=0;collapsible=1;marginBottom=0;whiteSpace=wrap;html=1;strokeWidth=2;fillColor=#008a00;fontColor=#ffffff;strokeColor=#005700;" parent="173" vertex="1">
                    <mxGeometry x="10" y="30" width="430" height="150" as="geometry"/>
                </mxCell>
                <mxCell id="175" value="&lt;font color=&quot;#000000&quot; style=&quot;font-size: 15px;&quot;&gt;- name: String&lt;br style=&quot;font-size: 15px;&quot;&gt;&lt;/font&gt;" style="text;strokeColor=#4C0099;fillColor=none;align=left;verticalAlign=middle;spacingLeft=4;spacingRight=4;overflow=hidden;points=[[0,0.5],[1,0.5]];portConstraint=eastwest;rotatable=0;whiteSpace=wrap;html=1;strokeWidth=2;fontSize=15;" parent="174" vertex="1">
                    <mxGeometry y="30" width="430" height="30" as="geometry"/>
                </mxCell>
                <mxCell id="176" value="&lt;font color=&quot;#000000&quot; style=&quot;font-size: 15px;&quot;&gt;- id: int&lt;br style=&quot;font-size: 15px;&quot;&gt;&lt;/font&gt;" style="text;strokeColor=#4C0099;fillColor=none;align=left;verticalAlign=middle;spacingLeft=4;spacingRight=4;overflow=hidden;points=[[0,0.5],[1,0.5]];portConstraint=eastwest;rotatable=0;whiteSpace=wrap;html=1;strokeWidth=2;fontSize=15;" parent="174" vertex="1">
                    <mxGeometry y="60" width="430" height="30" as="geometry"/>
                </mxCell>
                <mxCell id="177" value="&lt;font color=&quot;#000000&quot; style=&quot;font-size: 15px;&quot;&gt;- price: double&lt;br style=&quot;font-size: 15px;&quot;&gt;&lt;/font&gt;" style="text;strokeColor=#4C0099;fillColor=none;align=left;verticalAlign=middle;spacingLeft=4;spacingRight=4;overflow=hidden;points=[[0,0.5],[1,0.5]];portConstraint=eastwest;rotatable=0;whiteSpace=wrap;html=1;strokeWidth=2;fontSize=15;" parent="174" vertex="1">
                    <mxGeometry y="90" width="430" height="30" as="geometry"/>
                </mxCell>
                <mxCell id="183" value="&lt;font color=&quot;#000000&quot; style=&quot;font-size: 15px;&quot;&gt;- imagePath: String&lt;br style=&quot;font-size: 15px;&quot;&gt;&lt;/font&gt;" style="text;strokeColor=#4C0099;fillColor=none;align=left;verticalAlign=middle;spacingLeft=4;spacingRight=4;overflow=hidden;points=[[0,0.5],[1,0.5]];portConstraint=eastwest;rotatable=0;whiteSpace=wrap;html=1;strokeWidth=2;fontSize=15;" parent="174" vertex="1">
                    <mxGeometry y="120" width="430" height="30" as="geometry"/>
                </mxCell>
                <mxCell id="178" value="Methods" style="swimlane;fontStyle=0;childLayout=stackLayout;horizontal=1;startSize=30;horizontalStack=0;resizeParent=1;resizeParentMax=0;resizeLast=0;collapsible=1;marginBottom=0;whiteSpace=wrap;html=1;strokeWidth=2;fillColor=#1ba1e2;fontColor=#ffffff;strokeColor=#006EAF;" parent="173" vertex="1">
                    <mxGeometry x="10" y="200" width="430" height="150" as="geometry"/>
                </mxCell>
                <mxCell id="179" value="&lt;font color=&quot;#000000&quot; style=&quot;font-size: 15px;&quot;&gt;+ getName(): String&lt;br style=&quot;font-size: 15px;&quot;&gt;&lt;/font&gt;" style="text;strokeColor=#4C0099;fillColor=none;align=left;verticalAlign=middle;spacingLeft=4;spacingRight=4;overflow=hidden;points=[[0,0.5],[1,0.5]];portConstraint=eastwest;rotatable=0;whiteSpace=wrap;html=1;strokeWidth=2;fontSize=15;" parent="178" vertex="1">
                    <mxGeometry y="30" width="430" height="30" as="geometry"/>
                </mxCell>
                <mxCell id="180" value="&lt;font color=&quot;#000000&quot; style=&quot;font-size: 15px;&quot;&gt;+ getPrice(): double&lt;br style=&quot;font-size: 15px;&quot;&gt;&lt;/font&gt;" style="text;strokeColor=#4C0099;fillColor=none;align=left;verticalAlign=middle;spacingLeft=4;spacingRight=4;overflow=hidden;points=[[0,0.5],[1,0.5]];portConstraint=eastwest;rotatable=0;whiteSpace=wrap;html=1;strokeWidth=2;fontSize=15;" parent="178" vertex="1">
                    <mxGeometry y="60" width="430" height="30" as="geometry"/>
                </mxCell>
                <mxCell id="181" value="&lt;font color=&quot;#000000&quot; style=&quot;font-size: 15px;&quot;&gt;+ getId(): int&lt;br style=&quot;font-size: 15px;&quot;&gt;&lt;/font&gt;" style="text;strokeColor=#4C0099;fillColor=none;align=left;verticalAlign=middle;spacingLeft=4;spacingRight=4;overflow=hidden;points=[[0,0.5],[1,0.5]];portConstraint=eastwest;rotatable=0;whiteSpace=wrap;html=1;strokeWidth=2;fontSize=15;" parent="178" vertex="1">
                    <mxGeometry y="90" width="430" height="30" as="geometry"/>
                </mxCell>
                <mxCell id="182" value="&lt;font color=&quot;#000000&quot; style=&quot;font-size: 15px;&quot;&gt;+ getImagePath(): string&lt;br style=&quot;font-size: 15px;&quot;&gt;&lt;/font&gt;" style="text;strokeColor=#4C0099;fillColor=none;align=left;verticalAlign=middle;spacingLeft=4;spacingRight=4;overflow=hidden;points=[[0,0.5],[1,0.5]];portConstraint=eastwest;rotatable=0;whiteSpace=wrap;html=1;strokeWidth=2;fontSize=15;" parent="178" vertex="1">
                    <mxGeometry y="120" width="430" height="30" as="geometry"/>
                </mxCell>
                <mxCell id="397" style="edgeStyle=orthogonalEdgeStyle;html=1;entryX=0.5;entryY=0;entryDx=0;entryDy=0;strokeWidth=2;endArrow=diamond;endFill=1;fillColor=#6a00ff;strokeColor=#3700CC;" parent="1" source="185" target="207" edge="1">
                    <mxGeometry relative="1" as="geometry">
                        <Array as="points">
                            <mxPoint x="1420" y="2220"/>
                            <mxPoint x="870" y="2220"/>
                        </Array>
                    </mxGeometry>
                </mxCell>
                <mxCell id="185" value="Date" style="swimlane;whiteSpace=wrap;html=1;fillColor=#0050ef;fontColor=#ffffff;strokeColor=#001DBC;strokeWidth=2;startSize=23;" parent="1" vertex="1">
                    <mxGeometry x="1190" y="2240" width="460" height="360" as="geometry"/>
                </mxCell>
                <mxCell id="186" value="Attributes" style="swimlane;fontStyle=0;childLayout=stackLayout;horizontal=1;startSize=30;horizontalStack=0;resizeParent=1;resizeParentMax=0;resizeLast=0;collapsible=1;marginBottom=0;whiteSpace=wrap;html=1;strokeWidth=2;fillColor=#008a00;fontColor=#ffffff;strokeColor=#005700;" parent="185" vertex="1">
                    <mxGeometry x="10" y="30" width="430" height="120" as="geometry"/>
                </mxCell>
                <mxCell id="187" value="&lt;font color=&quot;#000000&quot; style=&quot;font-size: 15px;&quot;&gt;- year: int&lt;br style=&quot;font-size: 15px;&quot;&gt;&lt;/font&gt;" style="text;strokeColor=#4C0099;fillColor=none;align=left;verticalAlign=middle;spacingLeft=4;spacingRight=4;overflow=hidden;points=[[0,0.5],[1,0.5]];portConstraint=eastwest;rotatable=0;whiteSpace=wrap;html=1;strokeWidth=2;fontSize=15;" parent="186" vertex="1">
                    <mxGeometry y="30" width="430" height="30" as="geometry"/>
                </mxCell>
                <mxCell id="188" value="&lt;font color=&quot;#000000&quot; style=&quot;font-size: 15px;&quot;&gt;- month: int&lt;br style=&quot;font-size: 15px;&quot;&gt;&lt;/font&gt;" style="text;strokeColor=#4C0099;fillColor=none;align=left;verticalAlign=middle;spacingLeft=4;spacingRight=4;overflow=hidden;points=[[0,0.5],[1,0.5]];portConstraint=eastwest;rotatable=0;whiteSpace=wrap;html=1;strokeWidth=2;fontSize=15;" parent="186" vertex="1">
                    <mxGeometry y="60" width="430" height="30" as="geometry"/>
                </mxCell>
                <mxCell id="189" value="&lt;font color=&quot;#000000&quot; style=&quot;font-size: 15px;&quot;&gt;- day: int&lt;br style=&quot;font-size: 15px;&quot;&gt;&lt;/font&gt;" style="text;strokeColor=#4C0099;fillColor=none;align=left;verticalAlign=middle;spacingLeft=4;spacingRight=4;overflow=hidden;points=[[0,0.5],[1,0.5]];portConstraint=eastwest;rotatable=0;whiteSpace=wrap;html=1;strokeWidth=2;fontSize=15;" parent="186" vertex="1">
                    <mxGeometry y="90" width="430" height="30" as="geometry"/>
                </mxCell>
                <mxCell id="191" value="Methods" style="swimlane;fontStyle=0;childLayout=stackLayout;horizontal=1;startSize=30;horizontalStack=0;resizeParent=1;resizeParentMax=0;resizeLast=0;collapsible=1;marginBottom=0;whiteSpace=wrap;html=1;strokeWidth=2;fillColor=#1ba1e2;fontColor=#ffffff;strokeColor=#006EAF;" parent="185" vertex="1">
                    <mxGeometry x="10" y="170" width="430" height="180" as="geometry"/>
                </mxCell>
                <mxCell id="192" value="&lt;font color=&quot;#000000&quot; style=&quot;font-size: 15px;&quot;&gt;+ getStringYear(): String&lt;br style=&quot;font-size: 15px;&quot;&gt;&lt;/font&gt;" style="text;strokeColor=#4C0099;fillColor=none;align=left;verticalAlign=middle;spacingLeft=4;spacingRight=4;overflow=hidden;points=[[0,0.5],[1,0.5]];portConstraint=eastwest;rotatable=0;whiteSpace=wrap;html=1;strokeWidth=2;fontSize=15;" parent="191" vertex="1">
                    <mxGeometry y="30" width="430" height="30" as="geometry"/>
                </mxCell>
                <mxCell id="193" value="&lt;font color=&quot;#000000&quot; style=&quot;font-size: 15px;&quot;&gt;+ getStringMonth(): String&lt;br style=&quot;font-size: 15px;&quot;&gt;&lt;/font&gt;" style="text;strokeColor=#4C0099;fillColor=none;align=left;verticalAlign=middle;spacingLeft=4;spacingRight=4;overflow=hidden;points=[[0,0.5],[1,0.5]];portConstraint=eastwest;rotatable=0;whiteSpace=wrap;html=1;strokeWidth=2;fontSize=15;" parent="191" vertex="1">
                    <mxGeometry y="60" width="430" height="30" as="geometry"/>
                </mxCell>
                <mxCell id="194" value="&lt;font color=&quot;#000000&quot; style=&quot;font-size: 15px;&quot;&gt;+ getStringDay(): String&lt;br style=&quot;font-size: 15px;&quot;&gt;&lt;/font&gt;" style="text;strokeColor=#4C0099;fillColor=none;align=left;verticalAlign=middle;spacingLeft=4;spacingRight=4;overflow=hidden;points=[[0,0.5],[1,0.5]];portConstraint=eastwest;rotatable=0;whiteSpace=wrap;html=1;strokeWidth=2;fontSize=15;" parent="191" vertex="1">
                    <mxGeometry y="90" width="430" height="30" as="geometry"/>
                </mxCell>
                <mxCell id="195" value="&lt;font color=&quot;#000000&quot; style=&quot;font-size: 15px;&quot;&gt;+ getIntValueOfDate(): int&lt;br style=&quot;font-size: 15px;&quot;&gt;&lt;/font&gt;" style="text;strokeColor=#4C0099;fillColor=none;align=left;verticalAlign=middle;spacingLeft=4;spacingRight=4;overflow=hidden;points=[[0,0.5],[1,0.5]];portConstraint=eastwest;rotatable=0;whiteSpace=wrap;html=1;strokeWidth=2;fontSize=15;" parent="191" vertex="1">
                    <mxGeometry y="120" width="430" height="30" as="geometry"/>
                </mxCell>
                <mxCell id="196" value="&lt;font color=&quot;#000000&quot; style=&quot;font-size: 15px;&quot;&gt;+ getDateInStringForm(Char char): String&lt;br style=&quot;font-size: 15px;&quot;&gt;&lt;/font&gt;" style="text;strokeColor=#4C0099;fillColor=none;align=left;verticalAlign=middle;spacingLeft=4;spacingRight=4;overflow=hidden;points=[[0,0.5],[1,0.5]];portConstraint=eastwest;rotatable=0;whiteSpace=wrap;html=1;strokeWidth=2;fontSize=15;" parent="191" vertex="1">
                    <mxGeometry y="150" width="430" height="30" as="geometry"/>
                </mxCell>
                <mxCell id="396" style="edgeStyle=orthogonalEdgeStyle;html=1;entryX=0.5;entryY=0;entryDx=0;entryDy=0;strokeWidth=2;endArrow=diamond;endFill=1;fillColor=#6a00ff;strokeColor=#3700CC;" parent="1" source="197" target="207" edge="1">
                    <mxGeometry relative="1" as="geometry">
                        <Array as="points">
                            <mxPoint x="1970" y="2210"/>
                            <mxPoint x="870" y="2210"/>
                        </Array>
                    </mxGeometry>
                </mxCell>
                <mxCell id="197" value="SubOrder" style="swimlane;whiteSpace=wrap;html=1;fillColor=#0050ef;fontColor=#ffffff;strokeColor=#001DBC;strokeWidth=2;" parent="1" vertex="1">
                    <mxGeometry x="1740" y="2240" width="460" height="310" as="geometry"/>
                </mxCell>
                <mxCell id="198" value="Attributes" style="swimlane;fontStyle=0;childLayout=stackLayout;horizontal=1;startSize=30;horizontalStack=0;resizeParent=1;resizeParentMax=0;resizeLast=0;collapsible=1;marginBottom=0;whiteSpace=wrap;html=1;strokeWidth=2;fillColor=#008a00;fontColor=#ffffff;strokeColor=#005700;" parent="197" vertex="1">
                    <mxGeometry x="10" y="30" width="430" height="150" as="geometry"/>
                </mxCell>
                <mxCell id="199" value="&lt;font color=&quot;#000000&quot; style=&quot;font-size: 15px;&quot;&gt;- id: int&lt;br style=&quot;font-size: 15px;&quot;&gt;&lt;/font&gt;" style="text;strokeColor=#4C0099;fillColor=none;align=left;verticalAlign=middle;spacingLeft=4;spacingRight=4;overflow=hidden;points=[[0,0.5],[1,0.5]];portConstraint=eastwest;rotatable=0;whiteSpace=wrap;html=1;strokeWidth=2;fontSize=15;" parent="198" vertex="1">
                    <mxGeometry y="30" width="430" height="30" as="geometry"/>
                </mxCell>
                <mxCell id="200" value="&lt;font color=&quot;#000000&quot; style=&quot;font-size: 15px;&quot;&gt;- productId: int&lt;br style=&quot;font-size: 15px;&quot;&gt;&lt;/font&gt;" style="text;strokeColor=#4C0099;fillColor=none;align=left;verticalAlign=middle;spacingLeft=4;spacingRight=4;overflow=hidden;points=[[0,0.5],[1,0.5]];portConstraint=eastwest;rotatable=0;whiteSpace=wrap;html=1;strokeWidth=2;fontSize=15;" parent="198" vertex="1">
                    <mxGeometry y="60" width="430" height="30" as="geometry"/>
                </mxCell>
                <mxCell id="201" value="&lt;font color=&quot;#000000&quot; style=&quot;font-size: 15px;&quot;&gt;- quantity: int&lt;br style=&quot;font-size: 15px;&quot;&gt;&lt;/font&gt;" style="text;strokeColor=#4C0099;fillColor=none;align=left;verticalAlign=middle;spacingLeft=4;spacingRight=4;overflow=hidden;points=[[0,0.5],[1,0.5]];portConstraint=eastwest;rotatable=0;whiteSpace=wrap;html=1;strokeWidth=2;fontSize=15;" parent="198" vertex="1">
                    <mxGeometry y="90" width="430" height="30" as="geometry"/>
                </mxCell>
                <mxCell id="202" value="&lt;font color=&quot;#000000&quot; style=&quot;font-size: 15px;&quot;&gt;- totalPrice: double&lt;br style=&quot;font-size: 15px;&quot;&gt;&lt;/font&gt;" style="text;strokeColor=#4C0099;fillColor=none;align=left;verticalAlign=middle;spacingLeft=4;spacingRight=4;overflow=hidden;points=[[0,0.5],[1,0.5]];portConstraint=eastwest;rotatable=0;whiteSpace=wrap;html=1;strokeWidth=2;fontSize=15;" parent="198" vertex="1">
                    <mxGeometry y="120" width="430" height="30" as="geometry"/>
                </mxCell>
                <mxCell id="203" value="Methods" style="swimlane;fontStyle=0;childLayout=stackLayout;horizontal=1;startSize=30;horizontalStack=0;resizeParent=1;resizeParentMax=0;resizeLast=0;collapsible=1;marginBottom=0;whiteSpace=wrap;html=1;strokeWidth=2;fillColor=#1ba1e2;fontColor=#ffffff;strokeColor=#006EAF;" parent="197" vertex="1">
                    <mxGeometry x="10" y="200" width="430" height="90" as="geometry"/>
                </mxCell>
                <mxCell id="206" value="&lt;font color=&quot;#000000&quot; style=&quot;font-size: 15px;&quot;&gt;+ getQuantity(): int&lt;br style=&quot;font-size: 15px;&quot;&gt;&lt;/font&gt;" style="text;strokeColor=#4C0099;fillColor=none;align=left;verticalAlign=middle;spacingLeft=4;spacingRight=4;overflow=hidden;points=[[0,0.5],[1,0.5]];portConstraint=eastwest;rotatable=0;whiteSpace=wrap;html=1;strokeWidth=2;fontSize=15;" parent="203" vertex="1">
                    <mxGeometry y="30" width="430" height="30" as="geometry"/>
                </mxCell>
                <mxCell id="205" value="&lt;font color=&quot;#000000&quot; style=&quot;font-size: 15px;&quot;&gt;+ getTotalPricce(): double&lt;br style=&quot;font-size: 15px;&quot;&gt;&lt;/font&gt;" style="text;strokeColor=#4C0099;fillColor=none;align=left;verticalAlign=middle;spacingLeft=4;spacingRight=4;overflow=hidden;points=[[0,0.5],[1,0.5]];portConstraint=eastwest;rotatable=0;whiteSpace=wrap;html=1;strokeWidth=2;fontSize=15;" parent="203" vertex="1">
                    <mxGeometry y="60" width="430" height="30" as="geometry"/>
                </mxCell>
                <mxCell id="405" style="edgeStyle=orthogonalEdgeStyle;html=1;strokeWidth=2;startArrow=none;startFill=0;endArrow=diamond;endFill=1;fillColor=#1ba1e2;strokeColor=#006EAF;entryX=0.75;entryY=1;entryDx=0;entryDy=0;" parent="1" source="207" target="346" edge="1">
                    <mxGeometry relative="1" as="geometry">
                        <mxPoint x="440" y="1900" as="targetPoint"/>
                        <Array as="points">
                            <mxPoint x="850" y="2210"/>
                            <mxPoint x="458" y="2210"/>
                        </Array>
                    </mxGeometry>
                </mxCell>
                <mxCell id="207" value="Order" style="swimlane;whiteSpace=wrap;html=1;fillColor=#0050ef;fontColor=#ffffff;strokeColor=#001DBC;strokeWidth=2;" parent="1" vertex="1">
                    <mxGeometry x="640" y="2240" width="460" height="460" as="geometry"/>
                </mxCell>
                <mxCell id="208" value="Attributes" style="swimlane;fontStyle=0;childLayout=stackLayout;horizontal=1;startSize=30;horizontalStack=0;resizeParent=1;resizeParentMax=0;resizeLast=0;collapsible=1;marginBottom=0;whiteSpace=wrap;html=1;strokeWidth=2;fillColor=#008a00;fontColor=#ffffff;strokeColor=#005700;" parent="207" vertex="1">
                    <mxGeometry x="10" y="30" width="430" height="180" as="geometry"/>
                </mxCell>
                <mxCell id="209" value="&lt;font color=&quot;#000000&quot; style=&quot;font-size: 15px;&quot;&gt;- id: int&lt;br style=&quot;font-size: 15px;&quot;&gt;&lt;/font&gt;" style="text;strokeColor=#4C0099;fillColor=none;align=left;verticalAlign=middle;spacingLeft=4;spacingRight=4;overflow=hidden;points=[[0,0.5],[1,0.5]];portConstraint=eastwest;rotatable=0;whiteSpace=wrap;html=1;strokeWidth=2;fontSize=15;" parent="208" vertex="1">
                    <mxGeometry y="30" width="430" height="30" as="geometry"/>
                </mxCell>
                <mxCell id="210" value="&lt;font color=&quot;#000000&quot; style=&quot;font-size: 15px;&quot;&gt;- price: double&lt;br style=&quot;font-size: 15px;&quot;&gt;&lt;/font&gt;" style="text;strokeColor=#4C0099;fillColor=none;align=left;verticalAlign=middle;spacingLeft=4;spacingRight=4;overflow=hidden;points=[[0,0.5],[1,0.5]];portConstraint=eastwest;rotatable=0;whiteSpace=wrap;html=1;strokeWidth=2;fontSize=15;" parent="208" vertex="1">
                    <mxGeometry y="60" width="430" height="30" as="geometry"/>
                </mxCell>
                <mxCell id="211" value="&lt;font color=&quot;#000000&quot; style=&quot;font-size: 15px;&quot;&gt;- date: int&lt;br style=&quot;font-size: 15px;&quot;&gt;&lt;/font&gt;" style="text;strokeColor=#4C0099;fillColor=none;align=left;verticalAlign=middle;spacingLeft=4;spacingRight=4;overflow=hidden;points=[[0,0.5],[1,0.5]];portConstraint=eastwest;rotatable=0;whiteSpace=wrap;html=1;strokeWidth=2;fontSize=15;" parent="208" vertex="1">
                    <mxGeometry y="90" width="430" height="30" as="geometry"/>
                </mxCell>
                <mxCell id="212" value="&lt;font color=&quot;#000000&quot; style=&quot;font-size: 15px;&quot;&gt;- cacherId: int&lt;br style=&quot;font-size: 15px;&quot;&gt;&lt;/font&gt;" style="text;strokeColor=#4C0099;fillColor=none;align=left;verticalAlign=middle;spacingLeft=4;spacingRight=4;overflow=hidden;points=[[0,0.5],[1,0.5]];portConstraint=eastwest;rotatable=0;whiteSpace=wrap;html=1;strokeWidth=2;fontSize=15;" parent="208" vertex="1">
                    <mxGeometry y="120" width="430" height="30" as="geometry"/>
                </mxCell>
                <mxCell id="217" value="&lt;font color=&quot;#000000&quot; style=&quot;font-size: 15px;&quot;&gt;- subOrders: ArrayList&amp;lt;SubOrder&amp;gt;&lt;br style=&quot;font-size: 15px;&quot;&gt;&lt;/font&gt;" style="text;strokeColor=#4C0099;fillColor=none;align=left;verticalAlign=middle;spacingLeft=4;spacingRight=4;overflow=hidden;points=[[0,0.5],[1,0.5]];portConstraint=eastwest;rotatable=0;whiteSpace=wrap;html=1;strokeWidth=2;fontSize=15;" parent="208" vertex="1">
                    <mxGeometry y="150" width="430" height="30" as="geometry"/>
                </mxCell>
                <mxCell id="213" value="Methods" style="swimlane;fontStyle=0;childLayout=stackLayout;horizontal=1;startSize=30;horizontalStack=0;resizeParent=1;resizeParentMax=0;resizeLast=0;collapsible=1;marginBottom=0;whiteSpace=wrap;html=1;strokeWidth=2;fillColor=#1ba1e2;fontColor=#ffffff;strokeColor=#006EAF;" parent="207" vertex="1">
                    <mxGeometry x="10" y="230" width="430" height="210" as="geometry"/>
                </mxCell>
                <mxCell id="214" value="&lt;font color=&quot;#000000&quot; style=&quot;font-size: 15px;&quot;&gt;+ getId(): int&lt;br style=&quot;font-size: 15px;&quot;&gt;&lt;/font&gt;" style="text;strokeColor=#4C0099;fillColor=none;align=left;verticalAlign=middle;spacingLeft=4;spacingRight=4;overflow=hidden;points=[[0,0.5],[1,0.5]];portConstraint=eastwest;rotatable=0;whiteSpace=wrap;html=1;strokeWidth=2;fontSize=15;" parent="213" vertex="1">
                    <mxGeometry y="30" width="430" height="30" as="geometry"/>
                </mxCell>
                <mxCell id="215" value="&lt;font color=&quot;#000000&quot; style=&quot;font-size: 15px;&quot;&gt;+ getPrice(): double&lt;br style=&quot;font-size: 15px;&quot;&gt;&lt;/font&gt;" style="text;strokeColor=#4C0099;fillColor=none;align=left;verticalAlign=middle;spacingLeft=4;spacingRight=4;overflow=hidden;points=[[0,0.5],[1,0.5]];portConstraint=eastwest;rotatable=0;whiteSpace=wrap;html=1;strokeWidth=2;fontSize=15;" parent="213" vertex="1">
                    <mxGeometry y="60" width="430" height="30" as="geometry"/>
                </mxCell>
                <mxCell id="216" value="&lt;font color=&quot;#000000&quot; style=&quot;font-size: 15px;&quot;&gt;+ getDate(): int&lt;br style=&quot;font-size: 15px;&quot;&gt;&lt;/font&gt;" style="text;strokeColor=#4C0099;fillColor=none;align=left;verticalAlign=middle;spacingLeft=4;spacingRight=4;overflow=hidden;points=[[0,0.5],[1,0.5]];portConstraint=eastwest;rotatable=0;whiteSpace=wrap;html=1;strokeWidth=2;fontSize=15;" parent="213" vertex="1">
                    <mxGeometry y="90" width="430" height="30" as="geometry"/>
                </mxCell>
                <mxCell id="219" value="&lt;font color=&quot;#000000&quot; style=&quot;font-size: 15px;&quot;&gt;+ getCacherId(): int&lt;br style=&quot;font-size: 15px;&quot;&gt;&lt;/font&gt;" style="text;strokeColor=#4C0099;fillColor=none;align=left;verticalAlign=middle;spacingLeft=4;spacingRight=4;overflow=hidden;points=[[0,0.5],[1,0.5]];portConstraint=eastwest;rotatable=0;whiteSpace=wrap;html=1;strokeWidth=2;fontSize=15;" parent="213" vertex="1">
                    <mxGeometry y="120" width="430" height="30" as="geometry"/>
                </mxCell>
                <mxCell id="218" value="&lt;font color=&quot;#000000&quot; style=&quot;font-size: 15px;&quot;&gt;+ getSubOrders(): ArrayList&amp;lt;SubOrder&amp;gt;&lt;br style=&quot;font-size: 15px;&quot;&gt;&lt;/font&gt;" style="text;strokeColor=#4C0099;fillColor=none;align=left;verticalAlign=middle;spacingLeft=4;spacingRight=4;overflow=hidden;points=[[0,0.5],[1,0.5]];portConstraint=eastwest;rotatable=0;whiteSpace=wrap;html=1;strokeWidth=2;fontSize=15;" parent="213" vertex="1">
                    <mxGeometry y="150" width="430" height="30" as="geometry"/>
                </mxCell>
                <mxCell id="220" value="&lt;font color=&quot;#000000&quot; style=&quot;font-size: 15px;&quot;&gt;+ appendSubOrder(SubOrder subOrder): void&lt;br style=&quot;font-size: 15px;&quot;&gt;&lt;/font&gt;" style="text;strokeColor=#4C0099;fillColor=none;align=left;verticalAlign=middle;spacingLeft=4;spacingRight=4;overflow=hidden;points=[[0,0.5],[1,0.5]];portConstraint=eastwest;rotatable=0;whiteSpace=wrap;html=1;strokeWidth=2;fontSize=15;" parent="213" vertex="1">
                    <mxGeometry y="180" width="430" height="30" as="geometry"/>
                </mxCell>
                <mxCell id="382" style="edgeStyle=orthogonalEdgeStyle;html=1;entryX=0.5;entryY=1;entryDx=0;entryDy=0;strokeWidth=2;fillColor=#6a00ff;strokeColor=#3700CC;endArrow=none;endFill=0;startArrow=diamond;startFill=0;sourcePerimeterSpacing=-1;" parent="1" source="225" target="2" edge="1">
                    <mxGeometry relative="1" as="geometry">
                        <mxPoint x="3440" y="1040" as="targetPoint"/>
                        <Array as="points">
                            <mxPoint x="3400" y="1758"/>
                            <mxPoint x="3400" y="820"/>
                            <mxPoint x="1100" y="820"/>
                            <mxPoint x="1100" y="550"/>
                            <mxPoint x="370" y="550"/>
                        </Array>
                    </mxGeometry>
                </mxCell>
                <mxCell id="393" style="edgeStyle=orthogonalEdgeStyle;html=1;strokeWidth=2;endArrow=diamond;endFill=0;fillColor=#6a00ff;strokeColor=#3700CC;startArrow=diamond;startFill=0;exitX=0;exitY=0.75;exitDx=0;exitDy=0;" parent="1" source="225" edge="1">
                    <mxGeometry relative="1" as="geometry">
                        <mxPoint x="310" y="1270" as="targetPoint"/>
                        <Array as="points">
                            <mxPoint x="3380" y="1856"/>
                            <mxPoint x="3380" y="1430"/>
                            <mxPoint x="310" y="1430"/>
                        </Array>
                    </mxGeometry>
                </mxCell>
                <mxCell id="225" value="CacherController" style="swimlane;whiteSpace=wrap;html=1;fillColor=#0050ef;fontColor=#ffffff;strokeColor=#001DBC;strokeWidth=2;" parent="1" vertex="1">
                    <mxGeometry x="3480" y="1560" width="460" height="395" as="geometry"/>
                </mxCell>
                <mxCell id="226" value="Attributes" style="swimlane;fontStyle=0;childLayout=stackLayout;horizontal=1;startSize=30;horizontalStack=0;resizeParent=1;resizeParentMax=0;resizeLast=0;collapsible=1;marginBottom=0;whiteSpace=wrap;html=1;strokeWidth=2;fillColor=#008a00;fontColor=#ffffff;strokeColor=#005700;" parent="225" vertex="1">
                    <mxGeometry x="10" y="30" width="430" height="90" as="geometry"/>
                </mxCell>
                <mxCell id="227" value="&lt;font color=&quot;#000000&quot; style=&quot;font-size: 15px;&quot;&gt;- model: CacherModel&lt;br style=&quot;font-size: 15px;&quot;&gt;&lt;/font&gt;" style="text;strokeColor=#4C0099;fillColor=none;align=left;verticalAlign=middle;spacingLeft=4;spacingRight=4;overflow=hidden;points=[[0,0.5],[1,0.5]];portConstraint=eastwest;rotatable=0;whiteSpace=wrap;html=1;strokeWidth=2;fontSize=15;" parent="226" vertex="1">
                    <mxGeometry y="30" width="430" height="30" as="geometry"/>
                </mxCell>
                <mxCell id="228" value="&lt;font color=&quot;#000000&quot; style=&quot;font-size: 15px;&quot;&gt;- view: CacherSignUI&lt;br style=&quot;font-size: 15px;&quot;&gt;&lt;/font&gt;" style="text;strokeColor=#4C0099;fillColor=none;align=left;verticalAlign=middle;spacingLeft=4;spacingRight=4;overflow=hidden;points=[[0,0.5],[1,0.5]];portConstraint=eastwest;rotatable=0;whiteSpace=wrap;html=1;strokeWidth=2;fontSize=15;" parent="226" vertex="1">
                    <mxGeometry y="60" width="430" height="30" as="geometry"/>
                </mxCell>
                <mxCell id="230" value="Methods" style="swimlane;fontStyle=0;childLayout=stackLayout;horizontal=1;startSize=30;horizontalStack=0;resizeParent=1;resizeParentMax=0;resizeLast=0;collapsible=1;marginBottom=0;whiteSpace=wrap;html=1;strokeWidth=2;fillColor=#1ba1e2;fontColor=#ffffff;strokeColor=#006EAF;" parent="225" vertex="1">
                    <mxGeometry x="10" y="140" width="430" height="230" as="geometry"/>
                </mxCell>
                <mxCell id="234" value="&lt;font color=&quot;#000000&quot; style=&quot;font-size: 15px;&quot;&gt;+ getCacherWithId(int id): Cacher&lt;br style=&quot;font-size: 15px;&quot;&gt;&lt;/font&gt;" style="text;align=left;verticalAlign=middle;spacingLeft=4;spacingRight=4;overflow=hidden;points=[[0,0.5],[1,0.5]];portConstraint=eastwest;rotatable=0;whiteSpace=wrap;html=1;strokeWidth=2;fontSize=15;strokeColor=#4C0099;" parent="230" vertex="1">
                    <mxGeometry y="30" width="430" height="40" as="geometry"/>
                </mxCell>
                <mxCell id="235" value="&lt;font color=&quot;#000000&quot; style=&quot;font-size: 15px;&quot;&gt;+ getAllCacheres(): ArrayList&amp;lt;Cacher&amp;gt;&lt;br style=&quot;font-size: 15px;&quot;&gt;&lt;/font&gt;" style="text;align=left;verticalAlign=middle;spacingLeft=4;spacingRight=4;overflow=hidden;points=[[0,0.5],[1,0.5]];portConstraint=eastwest;rotatable=0;whiteSpace=wrap;html=1;strokeWidth=2;fontSize=15;strokeColor=#4C0099;" parent="230" vertex="1">
                    <mxGeometry y="70" width="430" height="40" as="geometry"/>
                </mxCell>
                <mxCell id="237" value="&lt;font color=&quot;#000000&quot; style=&quot;font-size: 15px;&quot;&gt;+ Sign(Cacher cacher): Cacher&lt;br style=&quot;font-size: 15px;&quot;&gt;&lt;/font&gt;" style="text;align=left;verticalAlign=middle;spacingLeft=4;spacingRight=4;overflow=hidden;points=[[0,0.5],[1,0.5]];portConstraint=eastwest;rotatable=0;whiteSpace=wrap;html=1;strokeWidth=2;fontSize=15;strokeColor=#4C0099;" parent="230" vertex="1">
                    <mxGeometry y="110" width="430" height="40" as="geometry"/>
                </mxCell>
                <mxCell id="292" value="&lt;font color=&quot;#000000&quot; style=&quot;font-size: 15px;&quot;&gt;- addNewCacher(Cacher cacher): Cacher&lt;br style=&quot;font-size: 15px;&quot;&gt;&lt;/font&gt;" style="text;align=left;verticalAlign=middle;spacingLeft=4;spacingRight=4;overflow=hidden;points=[[0,0.5],[1,0.5]];portConstraint=eastwest;rotatable=0;whiteSpace=wrap;html=1;strokeWidth=2;fontSize=15;strokeColor=#4C0099;" parent="230" vertex="1">
                    <mxGeometry y="150" width="430" height="40" as="geometry"/>
                </mxCell>
                <mxCell id="236" value="&lt;font color=&quot;#000000&quot; style=&quot;font-size: 15px;&quot;&gt;- setView(CacherSignUi cacherSignUi: void&lt;br style=&quot;font-size: 15px;&quot;&gt;&lt;/font&gt;" style="text;align=left;verticalAlign=middle;spacingLeft=4;spacingRight=4;overflow=hidden;points=[[0,0.5],[1,0.5]];portConstraint=eastwest;rotatable=0;whiteSpace=wrap;html=1;strokeWidth=2;fontSize=15;strokeColor=#4C0099;" parent="230" vertex="1">
                    <mxGeometry y="190" width="430" height="40" as="geometry"/>
                </mxCell>
                <mxCell id="383" style="edgeStyle=orthogonalEdgeStyle;html=1;entryX=1;entryY=0.5;entryDx=0;entryDy=0;strokeWidth=2;endArrow=none;endFill=0;fillColor=#6a00ff;strokeColor=#3700CC;startArrow=diamond;startFill=0;" parent="1" source="242" target="133" edge="1">
                    <mxGeometry relative="1" as="geometry">
                        <Array as="points">
                            <mxPoint x="3710" y="295"/>
                        </Array>
                    </mxGeometry>
                </mxCell>
                <mxCell id="242" value="ProductController" style="swimlane;whiteSpace=wrap;html=1;fillColor=#0050ef;fontColor=#ffffff;strokeColor=#001DBC;strokeWidth=2;" parent="1" vertex="1">
                    <mxGeometry x="3480" y="510" width="460" height="260" as="geometry"/>
                </mxCell>
                <mxCell id="243" value="Attributes" style="swimlane;fontStyle=0;childLayout=stackLayout;horizontal=1;startSize=30;horizontalStack=0;resizeParent=1;resizeParentMax=0;resizeLast=0;collapsible=1;marginBottom=0;whiteSpace=wrap;html=1;strokeWidth=2;fillColor=#008a00;fontColor=#ffffff;strokeColor=#005700;" parent="242" vertex="1">
                    <mxGeometry x="10" y="30" width="430" height="90" as="geometry"/>
                </mxCell>
                <mxCell id="244" value="&lt;font color=&quot;#000000&quot; style=&quot;font-size: 15px;&quot;&gt;- model: ProductModel&lt;br style=&quot;font-size: 15px;&quot;&gt;&lt;/font&gt;" style="text;strokeColor=#4C0099;fillColor=none;align=left;verticalAlign=middle;spacingLeft=4;spacingRight=4;overflow=hidden;points=[[0,0.5],[1,0.5]];portConstraint=eastwest;rotatable=0;whiteSpace=wrap;html=1;strokeWidth=2;fontSize=15;" parent="243" vertex="1">
                    <mxGeometry y="30" width="430" height="30" as="geometry"/>
                </mxCell>
                <mxCell id="245" value="&lt;font color=&quot;#000000&quot; style=&quot;font-size: 15px;&quot;&gt;- view: MakeOrderView&lt;br style=&quot;font-size: 15px;&quot;&gt;&lt;/font&gt;" style="text;strokeColor=#4C0099;fillColor=none;align=left;verticalAlign=middle;spacingLeft=4;spacingRight=4;overflow=hidden;points=[[0,0.5],[1,0.5]];portConstraint=eastwest;rotatable=0;whiteSpace=wrap;html=1;strokeWidth=2;fontSize=15;" parent="243" vertex="1">
                    <mxGeometry y="60" width="430" height="30" as="geometry"/>
                </mxCell>
                <mxCell id="246" value="Methods" style="swimlane;fontStyle=0;childLayout=stackLayout;horizontal=1;startSize=30;horizontalStack=0;resizeParent=1;resizeParentMax=0;resizeLast=0;collapsible=1;marginBottom=0;whiteSpace=wrap;html=1;strokeWidth=2;fillColor=#1ba1e2;fontColor=#ffffff;strokeColor=#006EAF;" parent="242" vertex="1">
                    <mxGeometry x="10" y="140" width="430" height="110" as="geometry"/>
                </mxCell>
                <mxCell id="247" value="&lt;font color=&quot;#000000&quot; style=&quot;font-size: 15px;&quot;&gt;+ getAllProducts(): ArrayList&amp;lt;Product&amp;gt;&lt;br style=&quot;font-size: 15px;&quot;&gt;&lt;/font&gt;" style="text;align=left;verticalAlign=middle;spacingLeft=4;spacingRight=4;overflow=hidden;points=[[0,0.5],[1,0.5]];portConstraint=eastwest;rotatable=0;whiteSpace=wrap;html=1;strokeWidth=2;fontSize=15;strokeColor=#4C0099;" parent="246" vertex="1">
                    <mxGeometry y="30" width="430" height="40" as="geometry"/>
                </mxCell>
                <mxCell id="251" value="&lt;font color=&quot;#000000&quot; style=&quot;font-size: 15px;&quot;&gt;+ getProductWithId(int id): Product&lt;br style=&quot;font-size: 15px;&quot;&gt;&lt;/font&gt;" style="text;align=left;verticalAlign=middle;spacingLeft=4;spacingRight=4;overflow=hidden;points=[[0,0.5],[1,0.5]];portConstraint=eastwest;rotatable=0;whiteSpace=wrap;html=1;strokeWidth=2;fontSize=15;strokeColor=#4C0099;" parent="246" vertex="1">
                    <mxGeometry y="70" width="430" height="40" as="geometry"/>
                </mxCell>
                <mxCell id="384" style="edgeStyle=orthogonalEdgeStyle;html=1;entryX=0.5;entryY=1;entryDx=0;entryDy=0;strokeWidth=2;endArrow=none;endFill=0;fillColor=#6a00ff;strokeColor=#3700CC;exitX=0.5;exitY=0;exitDx=0;exitDy=0;startArrow=diamond;startFill=0;" parent="1" source="252" target="148" edge="1">
                    <mxGeometry relative="1" as="geometry">
                        <Array as="points">
                            <mxPoint x="3700" y="790"/>
                            <mxPoint x="3440" y="790"/>
                            <mxPoint x="3440" y="420"/>
                            <mxPoint x="1970" y="420"/>
                        </Array>
                    </mxGeometry>
                </mxCell>
                <mxCell id="252" value="SubOrderController" style="swimlane;whiteSpace=wrap;html=1;fillColor=#0050ef;fontColor=#ffffff;strokeColor=#001DBC;strokeWidth=2;" parent="1" vertex="1">
                    <mxGeometry x="3470" y="950" width="460" height="220" as="geometry"/>
                </mxCell>
                <mxCell id="253" value="Attributes" style="swimlane;fontStyle=0;childLayout=stackLayout;horizontal=1;startSize=30;horizontalStack=0;resizeParent=1;resizeParentMax=0;resizeLast=0;collapsible=1;marginBottom=0;whiteSpace=wrap;html=1;strokeWidth=2;fillColor=#008a00;fontColor=#ffffff;strokeColor=#005700;" parent="252" vertex="1">
                    <mxGeometry x="10" y="30" width="430" height="90" as="geometry"/>
                </mxCell>
                <mxCell id="254" value="&lt;font color=&quot;#000000&quot; style=&quot;font-size: 15px;&quot;&gt;- model: SubOrdertModel&lt;br style=&quot;font-size: 15px;&quot;&gt;&lt;/font&gt;" style="text;strokeColor=#4C0099;fillColor=none;align=left;verticalAlign=middle;spacingLeft=4;spacingRight=4;overflow=hidden;points=[[0,0.5],[1,0.5]];portConstraint=eastwest;rotatable=0;whiteSpace=wrap;html=1;strokeWidth=2;fontSize=15;" parent="253" vertex="1">
                    <mxGeometry y="30" width="430" height="30" as="geometry"/>
                </mxCell>
                <mxCell id="255" value="&lt;font color=&quot;#000000&quot; style=&quot;font-size: 15px;&quot;&gt;- view: Null&lt;br style=&quot;font-size: 15px;&quot;&gt;&lt;/font&gt;" style="text;strokeColor=#4C0099;fillColor=none;align=left;verticalAlign=middle;spacingLeft=4;spacingRight=4;overflow=hidden;points=[[0,0.5],[1,0.5]];portConstraint=eastwest;rotatable=0;whiteSpace=wrap;html=1;strokeWidth=2;fontSize=15;" parent="253" vertex="1">
                    <mxGeometry y="60" width="430" height="30" as="geometry"/>
                </mxCell>
                <mxCell id="256" value="Methods" style="swimlane;fontStyle=0;childLayout=stackLayout;horizontal=1;startSize=30;horizontalStack=0;resizeParent=1;resizeParentMax=0;resizeLast=0;collapsible=1;marginBottom=0;whiteSpace=wrap;html=1;strokeWidth=2;fillColor=#1ba1e2;fontColor=#ffffff;strokeColor=#006EAF;" parent="252" vertex="1">
                    <mxGeometry x="10" y="140" width="430" height="70" as="geometry"/>
                </mxCell>
                <mxCell id="257" value="&lt;font color=&quot;#000000&quot; style=&quot;font-size: 15px;&quot;&gt;+ addNewSubOrder(SubOrder subOrder): void&lt;br style=&quot;font-size: 15px;&quot;&gt;&lt;/font&gt;" style="text;align=left;verticalAlign=middle;spacingLeft=4;spacingRight=4;overflow=hidden;points=[[0,0.5],[1,0.5]];portConstraint=eastwest;rotatable=0;whiteSpace=wrap;html=1;strokeWidth=2;fontSize=15;strokeColor=#4C0099;" parent="256" vertex="1">
                    <mxGeometry y="30" width="430" height="40" as="geometry"/>
                </mxCell>
                <mxCell id="385" style="edgeStyle=orthogonalEdgeStyle;html=1;strokeWidth=2;endArrow=none;endFill=0;fillColor=#6a00ff;strokeColor=#3700CC;startArrow=diamond;startFill=0;" parent="1" source="259" edge="1">
                    <mxGeometry relative="1" as="geometry">
                        <mxPoint x="1003.3333333333334" y="450" as="targetPoint"/>
                        <Array as="points">
                            <mxPoint x="3430" y="1380"/>
                            <mxPoint x="3430" y="790"/>
                            <mxPoint x="1130" y="790"/>
                            <mxPoint x="1130" y="530"/>
                            <mxPoint x="1003" y="530"/>
                        </Array>
                    </mxGeometry>
                </mxCell>
                <mxCell id="259" value="OrderController" style="swimlane;whiteSpace=wrap;html=1;fillColor=#0050ef;fontColor=#ffffff;strokeColor=#001DBC;strokeWidth=2;" parent="1" vertex="1">
                    <mxGeometry x="3480" y="1240" width="760" height="280" as="geometry"/>
                </mxCell>
                <mxCell id="260" value="Attributes" style="swimlane;fontStyle=0;childLayout=stackLayout;horizontal=1;startSize=30;horizontalStack=0;resizeParent=1;resizeParentMax=0;resizeLast=0;collapsible=1;marginBottom=0;whiteSpace=wrap;html=1;strokeWidth=2;fillColor=#008a00;fontColor=#ffffff;strokeColor=#005700;" parent="259" vertex="1">
                    <mxGeometry x="10" y="30" width="740" height="90" as="geometry"/>
                </mxCell>
                <mxCell id="261" value="&lt;font color=&quot;#000000&quot; style=&quot;font-size: 15px;&quot;&gt;- model: OrdertModel&lt;br style=&quot;font-size: 15px;&quot;&gt;&lt;/font&gt;" style="text;strokeColor=#4C0099;fillColor=none;align=left;verticalAlign=middle;spacingLeft=4;spacingRight=4;overflow=hidden;points=[[0,0.5],[1,0.5]];portConstraint=eastwest;rotatable=0;whiteSpace=wrap;html=1;strokeWidth=2;fontSize=15;" parent="260" vertex="1">
                    <mxGeometry y="30" width="740" height="30" as="geometry"/>
                </mxCell>
                <mxCell id="262" value="&lt;font color=&quot;#000000&quot; style=&quot;font-size: 15px;&quot;&gt;- view: null&lt;br style=&quot;font-size: 15px;&quot;&gt;&lt;/font&gt;" style="text;strokeColor=#4C0099;fillColor=none;align=left;verticalAlign=middle;spacingLeft=4;spacingRight=4;overflow=hidden;points=[[0,0.5],[1,0.5]];portConstraint=eastwest;rotatable=0;whiteSpace=wrap;html=1;strokeWidth=2;fontSize=15;" parent="260" vertex="1">
                    <mxGeometry y="60" width="740" height="30" as="geometry"/>
                </mxCell>
                <mxCell id="263" value="Methods" style="swimlane;fontStyle=0;childLayout=stackLayout;horizontal=1;startSize=30;horizontalStack=0;resizeParent=1;resizeParentMax=0;resizeLast=0;collapsible=1;marginBottom=0;whiteSpace=wrap;html=1;strokeWidth=2;fillColor=#1ba1e2;fontColor=#ffffff;strokeColor=#006EAF;" parent="259" vertex="1">
                    <mxGeometry x="10" y="140" width="740" height="120" as="geometry"/>
                </mxCell>
                <mxCell id="265" value="&lt;font color=&quot;#000000&quot; style=&quot;font-size: 15px;&quot;&gt;+ addNewOrder(Order order): bolean&lt;br style=&quot;font-size: 15px;&quot;&gt;&lt;/font&gt;" style="text;strokeColor=#001DBC;fillColor=none;align=left;verticalAlign=middle;spacingLeft=4;spacingRight=4;overflow=hidden;points=[[0,0.5],[1,0.5]];portConstraint=eastwest;rotatable=0;whiteSpace=wrap;html=1;strokeWidth=2;fontSize=15;fontColor=#ffffff;" parent="263" vertex="1">
                    <mxGeometry y="30" width="740" height="30" as="geometry"/>
                </mxCell>
                <mxCell id="267" value="&lt;font color=&quot;#000000&quot; style=&quot;font-size: 15px;&quot;&gt;+ getTotalPriceOfOrdersWithCacherIdForSpecificPeriod(Cacher cacher, Date date1, Date date2): double&lt;br style=&quot;font-size: 15px;&quot;&gt;&lt;/font&gt;" style="text;strokeColor=#001DBC;fillColor=none;align=left;verticalAlign=middle;spacingLeft=4;spacingRight=4;overflow=hidden;points=[[0,0.5],[1,0.5]];portConstraint=eastwest;rotatable=0;whiteSpace=wrap;html=1;strokeWidth=2;fontSize=15;fontColor=#ffffff;" parent="263" vertex="1">
                    <mxGeometry y="60" width="740" height="30" as="geometry"/>
                </mxCell>
                <mxCell id="266" value="&lt;font color=&quot;#000000&quot; style=&quot;font-size: 15px;&quot;&gt;+ getTotalPriceOfOrdersWithSpecificPeriod(Date date1, Date date2): double&lt;br style=&quot;font-size: 15px;&quot;&gt;&lt;/font&gt;" style="text;strokeColor=#001DBC;fillColor=none;align=left;verticalAlign=middle;spacingLeft=4;spacingRight=4;overflow=hidden;points=[[0,0.5],[1,0.5]];portConstraint=eastwest;rotatable=0;whiteSpace=wrap;html=1;strokeWidth=2;fontSize=15;fontColor=#ffffff;" parent="263" vertex="1">
                    <mxGeometry y="90" width="740" height="30" as="geometry"/>
                </mxCell>
                <mxCell id="388" style="edgeStyle=orthogonalEdgeStyle;html=1;entryX=0.5;entryY=1;entryDx=0;entryDy=0;strokeWidth=2;endArrow=none;endFill=0;fillColor=#6a00ff;strokeColor=#3700CC;" parent="1" source="268" target="225" edge="1">
                    <mxGeometry relative="1" as="geometry"/>
                </mxCell>
                <mxCell id="389" style="edgeStyle=orthogonalEdgeStyle;html=1;entryX=0.75;entryY=1;entryDx=0;entryDy=0;strokeWidth=2;endArrow=none;endFill=0;fillColor=#6a00ff;strokeColor=#3700CC;" parent="1" source="268" target="259" edge="1">
                    <mxGeometry relative="1" as="geometry">
                        <Array as="points">
                            <mxPoint x="4050" y="1920"/>
                            <mxPoint x="4050" y="1920"/>
                        </Array>
                    </mxGeometry>
                </mxCell>
                <mxCell id="394" style="edgeStyle=orthogonalEdgeStyle;html=1;entryX=0.5;entryY=1;entryDx=0;entryDy=0;strokeWidth=2;endArrow=diamond;endFill=0;fillColor=#d80073;strokeColor=#A50040;startArrow=diamond;startFill=0;" parent="1" source="268" target="358" edge="1">
                    <mxGeometry relative="1" as="geometry">
                        <Array as="points">
                            <mxPoint x="3360" y="2120"/>
                            <mxPoint x="3360" y="1460"/>
                            <mxPoint x="1130" y="1460"/>
                            <mxPoint x="1130" y="1320"/>
                            <mxPoint x="855" y="1320"/>
                        </Array>
                    </mxGeometry>
                </mxCell>
                <mxCell id="268" value="AnalaticsController" style="swimlane;whiteSpace=wrap;html=1;fillColor=#0050ef;fontColor=#ffffff;strokeColor=#001DBC;strokeWidth=2;" parent="1" vertex="1">
                    <mxGeometry x="3480" y="2010" width="890" height="350" as="geometry"/>
                </mxCell>
                <mxCell id="269" value="Attributes" style="swimlane;fontStyle=0;childLayout=stackLayout;horizontal=1;startSize=30;horizontalStack=0;resizeParent=1;resizeParentMax=0;resizeLast=0;collapsible=1;marginBottom=0;whiteSpace=wrap;html=1;strokeWidth=2;fillColor=#008a00;fontColor=#ffffff;strokeColor=#005700;" parent="268" vertex="1">
                    <mxGeometry x="10" y="30" width="870" height="120" as="geometry"/>
                </mxCell>
                <mxCell id="270" value="&lt;font color=&quot;#000000&quot; style=&quot;font-size: 15px;&quot;&gt;- cahcerController: CacherController&lt;br style=&quot;font-size: 15px;&quot;&gt;&lt;/font&gt;" style="text;strokeColor=#4C0099;fillColor=none;align=left;verticalAlign=middle;spacingLeft=4;spacingRight=4;overflow=hidden;points=[[0,0.5],[1,0.5]];portConstraint=eastwest;rotatable=0;whiteSpace=wrap;html=1;strokeWidth=2;fontSize=15;" parent="269" vertex="1">
                    <mxGeometry y="30" width="870" height="30" as="geometry"/>
                </mxCell>
                <mxCell id="271" value="&lt;font color=&quot;#000000&quot; style=&quot;font-size: 15px;&quot;&gt;- orderController: OrderControler&lt;br style=&quot;font-size: 15px;&quot;&gt;&lt;/font&gt;" style="text;strokeColor=#4C0099;fillColor=none;align=left;verticalAlign=middle;spacingLeft=4;spacingRight=4;overflow=hidden;points=[[0,0.5],[1,0.5]];portConstraint=eastwest;rotatable=0;whiteSpace=wrap;html=1;strokeWidth=2;fontSize=15;" parent="269" vertex="1">
                    <mxGeometry y="60" width="870" height="30" as="geometry"/>
                </mxCell>
                <mxCell id="456" value="&lt;font color=&quot;#000000&quot; style=&quot;font-size: 15px;&quot;&gt;- analaticsView: AnalaticsUi&lt;br style=&quot;font-size: 15px;&quot;&gt;&lt;/font&gt;" style="text;strokeColor=#4C0099;fillColor=none;align=left;verticalAlign=middle;spacingLeft=4;spacingRight=4;overflow=hidden;points=[[0,0.5],[1,0.5]];portConstraint=eastwest;rotatable=0;whiteSpace=wrap;html=1;strokeWidth=2;fontSize=15;" vertex="1" parent="269">
                    <mxGeometry y="90" width="870" height="30" as="geometry"/>
                </mxCell>
                <mxCell id="272" value="Methods" style="swimlane;fontStyle=0;childLayout=stackLayout;horizontal=1;startSize=30;horizontalStack=0;resizeParent=1;resizeParentMax=0;resizeLast=0;collapsible=1;marginBottom=0;whiteSpace=wrap;html=1;strokeWidth=2;fillColor=#1ba1e2;fontColor=#ffffff;strokeColor=#006EAF;" parent="268" vertex="1">
                    <mxGeometry x="10" y="160" width="870" height="150" as="geometry"/>
                </mxCell>
                <mxCell id="273" value="&lt;font color=&quot;#000000&quot; style=&quot;font-size: 15px;&quot;&gt;+ getTotalOrdersPricesForEachCacherForSpecificPeriod(Date date1, Date date2): HashMap&amp;lt;Integer, String, double&amp;gt;&lt;br style=&quot;font-size: 15px;&quot;&gt;&lt;/font&gt;" style="text;align=left;verticalAlign=middle;spacingLeft=4;spacingRight=4;overflow=hidden;points=[[0,0.5],[1,0.5]];portConstraint=eastwest;rotatable=0;whiteSpace=wrap;html=1;strokeWidth=2;fontSize=15;strokeColor=#4C0099;" parent="272" vertex="1">
                    <mxGeometry y="30" width="870" height="40" as="geometry"/>
                </mxCell>
                <mxCell id="462" value="&lt;font color=&quot;#000000&quot; style=&quot;font-size: 15px;&quot;&gt;+&amp;nbsp;&lt;/font&gt;&lt;font color=&quot;#000000&quot;&gt;getTotalPriceFor&lt;/font&gt;&lt;span style=&quot;color: rgb(0, 0, 0);&quot;&gt;AllOrdersIn&lt;/span&gt;&lt;font color=&quot;#000000&quot;&gt;SpecificPeriod&lt;/font&gt;&lt;font color=&quot;#000000&quot; style=&quot;font-size: 15px;&quot;&gt;(Date date1, Date date2): double&lt;br style=&quot;font-size: 15px;&quot;&gt;&lt;/font&gt;" style="text;align=left;verticalAlign=middle;spacingLeft=4;spacingRight=4;overflow=hidden;points=[[0,0.5],[1,0.5]];portConstraint=eastwest;rotatable=0;whiteSpace=wrap;html=1;strokeWidth=2;fontSize=15;strokeColor=#4C0099;" vertex="1" parent="272">
                    <mxGeometry y="70" width="870" height="40" as="geometry"/>
                </mxCell>
                <mxCell id="457" value="&lt;font color=&quot;#000000&quot; style=&quot;font-size: 15px;&quot;&gt;+ setView(AnalaticsUi): void&lt;br style=&quot;font-size: 15px;&quot;&gt;&lt;/font&gt;" style="text;align=left;verticalAlign=middle;spacingLeft=4;spacingRight=4;overflow=hidden;points=[[0,0.5],[1,0.5]];portConstraint=eastwest;rotatable=0;whiteSpace=wrap;html=1;strokeWidth=2;fontSize=15;strokeColor=#4C0099;" vertex="1" parent="272">
                    <mxGeometry y="110" width="870" height="40" as="geometry"/>
                </mxCell>
                <mxCell id="390" style="edgeStyle=orthogonalEdgeStyle;html=1;entryX=1;entryY=0.5;entryDx=0;entryDy=0;strokeWidth=2;endArrow=none;endFill=0;fillColor=#6a00ff;strokeColor=#3700CC;" parent="1" source="275" target="259" edge="1">
                    <mxGeometry relative="1" as="geometry">
                        <Array as="points">
                            <mxPoint x="4390" y="2425"/>
                            <mxPoint x="4390" y="1380"/>
                        </Array>
                    </mxGeometry>
                </mxCell>
                <mxCell id="391" style="edgeStyle=orthogonalEdgeStyle;html=1;entryX=1;entryY=0.5;entryDx=0;entryDy=0;strokeWidth=2;endArrow=none;endFill=0;fillColor=#6a00ff;strokeColor=#3700CC;" parent="1" source="275" target="252" edge="1">
                    <mxGeometry relative="1" as="geometry">
                        <Array as="points">
                            <mxPoint x="4410" y="2425"/>
                            <mxPoint x="4410" y="1060"/>
                        </Array>
                    </mxGeometry>
                </mxCell>
                <mxCell id="392" style="edgeStyle=orthogonalEdgeStyle;html=1;entryX=1;entryY=0.5;entryDx=0;entryDy=0;strokeWidth=2;endArrow=none;endFill=0;fillColor=#6a00ff;strokeColor=#3700CC;" parent="1" source="275" target="242" edge="1">
                    <mxGeometry relative="1" as="geometry">
                        <Array as="points">
                            <mxPoint x="4430" y="2425"/>
                            <mxPoint x="4430" y="640"/>
                        </Array>
                    </mxGeometry>
                </mxCell>
                <mxCell id="395" style="edgeStyle=orthogonalEdgeStyle;html=1;strokeWidth=2;endArrow=diamond;endFill=0;fillColor=#a20025;strokeColor=#6F0000;startArrow=diamond;startFill=0;" parent="1" source="275" edge="1">
                    <mxGeometry relative="1" as="geometry">
                        <mxPoint x="1400" y="1390" as="targetPoint"/>
                        <Array as="points">
                            <mxPoint x="3340" y="2425"/>
                            <mxPoint x="3340" y="1490"/>
                            <mxPoint x="1400" y="1490"/>
                        </Array>
                    </mxGeometry>
                </mxCell>
                <mxCell id="275" value="MakeOrderController" style="swimlane;whiteSpace=wrap;html=1;fillColor=#0050ef;fontColor=#ffffff;strokeColor=#001DBC;strokeWidth=2;" parent="1" vertex="1">
                    <mxGeometry x="3480" y="2395" width="380" height="365" as="geometry"/>
                </mxCell>
                <mxCell id="276" value="Attributes" style="swimlane;fontStyle=0;childLayout=stackLayout;horizontal=1;startSize=30;horizontalStack=0;resizeParent=1;resizeParentMax=0;resizeLast=0;collapsible=1;marginBottom=0;whiteSpace=wrap;html=1;strokeWidth=2;fillColor=#008a00;fontColor=#ffffff;strokeColor=#005700;" parent="275" vertex="1">
                    <mxGeometry x="10" y="30" width="360" height="150" as="geometry"/>
                </mxCell>
                <mxCell id="277" value="&lt;font color=&quot;#000000&quot; style=&quot;font-size: 15px;&quot;&gt;- productController: ProductController&lt;br style=&quot;font-size: 15px;&quot;&gt;&lt;/font&gt;" style="text;strokeColor=#4C0099;fillColor=none;align=left;verticalAlign=middle;spacingLeft=4;spacingRight=4;overflow=hidden;points=[[0,0.5],[1,0.5]];portConstraint=eastwest;rotatable=0;whiteSpace=wrap;html=1;strokeWidth=2;fontSize=15;" parent="276" vertex="1">
                    <mxGeometry y="30" width="360" height="30" as="geometry"/>
                </mxCell>
                <mxCell id="278" value="&lt;font color=&quot;#000000&quot; style=&quot;font-size: 15px;&quot;&gt;- orderController: OrderControler&lt;br style=&quot;font-size: 15px;&quot;&gt;&lt;/font&gt;" style="text;strokeColor=#4C0099;fillColor=none;align=left;verticalAlign=middle;spacingLeft=4;spacingRight=4;overflow=hidden;points=[[0,0.5],[1,0.5]];portConstraint=eastwest;rotatable=0;whiteSpace=wrap;html=1;strokeWidth=2;fontSize=15;" parent="276" vertex="1">
                    <mxGeometry y="60" width="360" height="30" as="geometry"/>
                </mxCell>
                <mxCell id="453" value="&lt;font color=&quot;#000000&quot; style=&quot;font-size: 15px;&quot;&gt;- subOrderController: SubOrderControler&lt;br style=&quot;font-size: 15px;&quot;&gt;&lt;/font&gt;" style="text;strokeColor=#4C0099;fillColor=none;align=left;verticalAlign=middle;spacingLeft=4;spacingRight=4;overflow=hidden;points=[[0,0.5],[1,0.5]];portConstraint=eastwest;rotatable=0;whiteSpace=wrap;html=1;strokeWidth=2;fontSize=15;" vertex="1" parent="276">
                    <mxGeometry y="90" width="360" height="30" as="geometry"/>
                </mxCell>
                <mxCell id="281" value="&lt;font color=&quot;#000000&quot; style=&quot;font-size: 15px;&quot;&gt;- makeOrderView: MakeOrderUi&lt;br style=&quot;font-size: 15px;&quot;&gt;&lt;/font&gt;" style="text;strokeColor=#4C0099;fillColor=none;align=left;verticalAlign=middle;spacingLeft=4;spacingRight=4;overflow=hidden;points=[[0,0.5],[1,0.5]];portConstraint=eastwest;rotatable=0;whiteSpace=wrap;html=1;strokeWidth=2;fontSize=15;" parent="276" vertex="1">
                    <mxGeometry y="120" width="360" height="30" as="geometry"/>
                </mxCell>
                <mxCell id="279" value="Methods" style="swimlane;fontStyle=0;childLayout=stackLayout;horizontal=1;startSize=30;horizontalStack=0;resizeParent=1;resizeParentMax=0;resizeLast=0;collapsible=1;marginBottom=0;whiteSpace=wrap;html=1;strokeWidth=2;fillColor=#1ba1e2;fontColor=#ffffff;strokeColor=#006EAF;" parent="275" vertex="1">
                    <mxGeometry x="10" y="210" width="360" height="150" as="geometry"/>
                </mxCell>
                <mxCell id="280" value="&lt;font color=&quot;#000000&quot; style=&quot;font-size: 15px;&quot;&gt;+ saveComplateOrderUnit(Order order): void&lt;br style=&quot;font-size: 15px;&quot;&gt;&lt;/font&gt;" style="text;align=left;verticalAlign=middle;spacingLeft=4;spacingRight=4;overflow=hidden;points=[[0,0.5],[1,0.5]];portConstraint=eastwest;rotatable=0;whiteSpace=wrap;html=1;strokeWidth=2;fontSize=15;strokeColor=#4C0099;" parent="279" vertex="1">
                    <mxGeometry y="30" width="360" height="40" as="geometry"/>
                </mxCell>
                <mxCell id="458" value="&lt;font color=&quot;#000000&quot; style=&quot;font-size: 15px;&quot;&gt;+ getAllProducts(): ArrayList&amp;lt;Product&amp;gt;&lt;br style=&quot;font-size: 15px;&quot;&gt;&lt;/font&gt;" style="text;align=left;verticalAlign=middle;spacingLeft=4;spacingRight=4;overflow=hidden;points=[[0,0.5],[1,0.5]];portConstraint=eastwest;rotatable=0;whiteSpace=wrap;html=1;strokeWidth=2;fontSize=15;strokeColor=#4C0099;" vertex="1" parent="279">
                    <mxGeometry y="70" width="360" height="40" as="geometry"/>
                </mxCell>
                <mxCell id="282" value="&lt;font color=&quot;#000000&quot; style=&quot;font-size: 15px;&quot;&gt;+ setView(MakeOrderUi): void&lt;br style=&quot;font-size: 15px;&quot;&gt;&lt;/font&gt;" style="text;align=left;verticalAlign=middle;spacingLeft=4;spacingRight=4;overflow=hidden;points=[[0,0.5],[1,0.5]];portConstraint=eastwest;rotatable=0;whiteSpace=wrap;html=1;strokeWidth=2;fontSize=15;strokeColor=#4C0099;" parent="279" vertex="1">
                    <mxGeometry y="110" width="360" height="40" as="geometry"/>
                </mxCell>
                <mxCell id="367" style="edgeStyle=none;html=1;fillColor=#6a00ff;strokeColor=#3700CC;dashed=1;exitX=0.5;exitY=0;exitDx=0;exitDy=0;strokeWidth=2;" parent="1" source="284" edge="1">
                    <mxGeometry relative="1" as="geometry">
                        <mxPoint x="860" y="750" as="targetPoint"/>
                        <Array as="points">
                            <mxPoint x="345" y="840"/>
                            <mxPoint x="860" y="840"/>
                        </Array>
                    </mxGeometry>
                </mxCell>
                <mxCell id="284" value="CacherSignUi" style="swimlane;whiteSpace=wrap;html=1;fillColor=#0050ef;fontColor=#ffffff;strokeColor=#001DBC;strokeWidth=2;" parent="1" vertex="1">
                    <mxGeometry x="120" y="920" width="450" height="350" as="geometry"/>
                </mxCell>
                <mxCell id="285" value="Attributes" style="swimlane;fontStyle=0;childLayout=stackLayout;horizontal=1;startSize=30;horizontalStack=0;resizeParent=1;resizeParentMax=0;resizeLast=0;collapsible=1;marginBottom=0;whiteSpace=wrap;html=1;strokeWidth=2;fillColor=#008a00;fontColor=#ffffff;strokeColor=#005700;" parent="284" vertex="1">
                    <mxGeometry x="10" y="30" width="430" height="180" as="geometry"/>
                </mxCell>
                <mxCell id="296" value="&lt;font color=&quot;#000000&quot; style=&quot;font-size: 15px;&quot;&gt;- controller: CacherController&lt;br style=&quot;font-size: 15px;&quot;&gt;&lt;/font&gt;" style="text;strokeColor=#4C0099;fillColor=none;align=left;verticalAlign=middle;spacingLeft=4;spacingRight=4;overflow=hidden;points=[[0,0.5],[1,0.5]];portConstraint=eastwest;rotatable=0;whiteSpace=wrap;html=1;strokeWidth=2;fontSize=15;" parent="285" vertex="1">
                    <mxGeometry y="30" width="430" height="30" as="geometry"/>
                </mxCell>
                <mxCell id="286" value="&lt;font color=&quot;#000000&quot; style=&quot;font-size: 15px;&quot;&gt;- window: JFrame&lt;br style=&quot;font-size: 15px;&quot;&gt;&lt;/font&gt;" style="text;strokeColor=#4C0099;fillColor=none;align=left;verticalAlign=middle;spacingLeft=4;spacingRight=4;overflow=hidden;points=[[0,0.5],[1,0.5]];portConstraint=eastwest;rotatable=0;whiteSpace=wrap;html=1;strokeWidth=2;fontSize=15;" parent="285" vertex="1">
                    <mxGeometry y="60" width="430" height="30" as="geometry"/>
                </mxCell>
                <mxCell id="308" value="&lt;font color=&quot;#000000&quot; style=&quot;font-size: 15px;&quot;&gt;- userNameInput: JTextField&lt;br style=&quot;font-size: 15px;&quot;&gt;&lt;/font&gt;" style="text;strokeColor=#4C0099;fillColor=none;align=left;verticalAlign=middle;spacingLeft=4;spacingRight=4;overflow=hidden;points=[[0,0.5],[1,0.5]];portConstraint=eastwest;rotatable=0;whiteSpace=wrap;html=1;strokeWidth=2;fontSize=15;" parent="285" vertex="1">
                    <mxGeometry y="90" width="430" height="30" as="geometry"/>
                </mxCell>
                <mxCell id="309" value="&lt;font color=&quot;#000000&quot; style=&quot;font-size: 15px;&quot;&gt;- passwordInput: JPasswordField&lt;br style=&quot;font-size: 15px;&quot;&gt;&lt;/font&gt;" style="text;strokeColor=#4C0099;fillColor=none;align=left;verticalAlign=middle;spacingLeft=4;spacingRight=4;overflow=hidden;points=[[0,0.5],[1,0.5]];portConstraint=eastwest;rotatable=0;whiteSpace=wrap;html=1;strokeWidth=2;fontSize=15;" parent="285" vertex="1">
                    <mxGeometry y="120" width="430" height="30" as="geometry"/>
                </mxCell>
                <mxCell id="307" value="&lt;font color=&quot;#000000&quot; style=&quot;font-size: 15px;&quot;&gt;- signButton: JButton&lt;br style=&quot;font-size: 15px;&quot;&gt;&lt;/font&gt;" style="text;strokeColor=#4C0099;fillColor=none;align=left;verticalAlign=middle;spacingLeft=4;spacingRight=4;overflow=hidden;points=[[0,0.5],[1,0.5]];portConstraint=eastwest;rotatable=0;whiteSpace=wrap;html=1;strokeWidth=2;fontSize=15;" parent="285" vertex="1">
                    <mxGeometry y="150" width="430" height="30" as="geometry"/>
                </mxCell>
                <mxCell id="287" value="Methods" style="swimlane;fontStyle=0;childLayout=stackLayout;horizontal=1;startSize=30;horizontalStack=0;resizeParent=1;resizeParentMax=0;resizeLast=0;collapsible=1;marginBottom=0;whiteSpace=wrap;html=1;strokeWidth=2;fillColor=#1ba1e2;fontColor=#ffffff;strokeColor=#006EAF;" parent="284" vertex="1">
                    <mxGeometry x="10" y="230" width="430" height="110" as="geometry"/>
                </mxCell>
                <mxCell id="291" value="&lt;font color=&quot;#000000&quot; style=&quot;font-size: 15px;&quot;&gt;+ buildBaseUi(): void&lt;br style=&quot;font-size: 15px;&quot;&gt;&lt;/font&gt;" style="text;strokeColor=#4C0099;fillColor=none;align=left;verticalAlign=middle;spacingLeft=4;spacingRight=4;overflow=hidden;points=[[0,0.5],[1,0.5]];portConstraint=eastwest;rotatable=0;whiteSpace=wrap;html=1;strokeWidth=2;fontSize=15;" parent="287" vertex="1">
                    <mxGeometry y="30" width="430" height="40" as="geometry"/>
                </mxCell>
                <mxCell id="295" value="&lt;font color=&quot;#000000&quot; style=&quot;font-size: 15px;&quot;&gt;+ sign(): void&lt;br style=&quot;font-size: 15px;&quot;&gt;&lt;/font&gt;" style="text;strokeColor=#4C0099;fillColor=none;align=left;verticalAlign=middle;spacingLeft=4;spacingRight=4;overflow=hidden;points=[[0,0.5],[1,0.5]];portConstraint=eastwest;rotatable=0;whiteSpace=wrap;html=1;strokeWidth=2;fontSize=15;" parent="287" vertex="1">
                    <mxGeometry y="70" width="430" height="40" as="geometry"/>
                </mxCell>
                <mxCell id="431" style="edgeStyle=orthogonalEdgeStyle;html=1;strokeWidth=2;endArrow=none;endFill=0;fillColor=#a20025;strokeColor=#6F0000;" parent="1" source="310" edge="1">
                    <mxGeometry relative="1" as="geometry">
                        <mxPoint x="845" y="1290" as="targetPoint"/>
                    </mxGeometry>
                </mxCell>
                <mxCell id="432" style="edgeStyle=orthogonalEdgeStyle;html=1;entryX=0.25;entryY=1;entryDx=0;entryDy=0;strokeWidth=2;endArrow=none;endFill=0;fillColor=#a20025;strokeColor=#6F0000;" parent="1" source="310" target="334" edge="1">
                    <mxGeometry relative="1" as="geometry">
                        <Array as="points">
                            <mxPoint x="845" y="1410"/>
                            <mxPoint x="1263" y="1410"/>
                        </Array>
                    </mxGeometry>
                </mxCell>
                <mxCell id="310" value="ServicesUi" style="swimlane;whiteSpace=wrap;html=1;fillColor=#0050ef;fontColor=#ffffff;strokeColor=#001DBC;strokeWidth=2;" parent="1" vertex="1">
                    <mxGeometry x="620" y="1455" width="450" height="440" as="geometry"/>
                </mxCell>
                <mxCell id="311" value="Attributes" style="swimlane;fontStyle=0;childLayout=stackLayout;horizontal=1;startSize=30;horizontalStack=0;resizeParent=1;resizeParentMax=0;resizeLast=0;collapsible=1;marginBottom=0;whiteSpace=wrap;html=1;strokeWidth=2;fillColor=#008a00;fontColor=#ffffff;strokeColor=#005700;" parent="310" vertex="1">
                    <mxGeometry x="10" y="30" width="430" height="180" as="geometry"/>
                </mxCell>
                <mxCell id="312" value="&lt;font color=&quot;#000000&quot; style=&quot;font-size: 15px;&quot;&gt;- cacher: Cacher&lt;br style=&quot;font-size: 15px;&quot;&gt;&lt;/font&gt;" style="text;strokeColor=#4C0099;fillColor=none;align=left;verticalAlign=middle;spacingLeft=4;spacingRight=4;overflow=hidden;points=[[0,0.5],[1,0.5]];portConstraint=eastwest;rotatable=0;whiteSpace=wrap;html=1;strokeWidth=2;fontSize=15;" parent="311" vertex="1">
                    <mxGeometry y="30" width="430" height="30" as="geometry"/>
                </mxCell>
                <mxCell id="313" value="&lt;font color=&quot;#000000&quot; style=&quot;font-size: 15px;&quot;&gt;- window: JFrame&lt;br style=&quot;font-size: 15px;&quot;&gt;&lt;/font&gt;" style="text;strokeColor=#4C0099;fillColor=none;align=left;verticalAlign=middle;spacingLeft=4;spacingRight=4;overflow=hidden;points=[[0,0.5],[1,0.5]];portConstraint=eastwest;rotatable=0;whiteSpace=wrap;html=1;strokeWidth=2;fontSize=15;" parent="311" vertex="1">
                    <mxGeometry y="60" width="430" height="30" as="geometry"/>
                </mxCell>
                <mxCell id="314" value="&lt;font color=&quot;#000000&quot; style=&quot;font-size: 15px;&quot;&gt;- makeOrderServiceMoveButton: JButton&lt;br style=&quot;font-size: 15px;&quot;&gt;&lt;/font&gt;" style="text;strokeColor=#4C0099;fillColor=none;align=left;verticalAlign=middle;spacingLeft=4;spacingRight=4;overflow=hidden;points=[[0,0.5],[1,0.5]];portConstraint=eastwest;rotatable=0;whiteSpace=wrap;html=1;strokeWidth=2;fontSize=15;" parent="311" vertex="1">
                    <mxGeometry y="90" width="430" height="30" as="geometry"/>
                </mxCell>
                <mxCell id="315" value="&lt;font color=&quot;#000000&quot; style=&quot;font-size: 15px;&quot;&gt;- last30DaysAnalaticsServiceMoveButton: JButton&lt;br style=&quot;font-size: 15px;&quot;&gt;&lt;/font&gt;" style="text;strokeColor=#4C0099;fillColor=none;align=left;verticalAlign=middle;spacingLeft=4;spacingRight=4;overflow=hidden;points=[[0,0.5],[1,0.5]];portConstraint=eastwest;rotatable=0;whiteSpace=wrap;html=1;strokeWidth=2;fontSize=15;" parent="311" vertex="1">
                    <mxGeometry y="120" width="430" height="30" as="geometry"/>
                </mxCell>
                <mxCell id="316" value="&lt;font color=&quot;#000000&quot; style=&quot;font-size: 15px;&quot;&gt;- backButton: JButton&lt;br style=&quot;font-size: 15px;&quot;&gt;&lt;/font&gt;" style="text;strokeColor=#4C0099;fillColor=none;align=left;verticalAlign=middle;spacingLeft=4;spacingRight=4;overflow=hidden;points=[[0,0.5],[1,0.5]];portConstraint=eastwest;rotatable=0;whiteSpace=wrap;html=1;strokeWidth=2;fontSize=15;" parent="311" vertex="1">
                    <mxGeometry y="150" width="430" height="30" as="geometry"/>
                </mxCell>
                <mxCell id="317" value="Methods" style="swimlane;fontStyle=0;childLayout=stackLayout;horizontal=1;startSize=30;horizontalStack=0;resizeParent=1;resizeParentMax=0;resizeLast=0;collapsible=1;marginBottom=0;whiteSpace=wrap;html=1;strokeWidth=2;fillColor=#1ba1e2;fontColor=#ffffff;strokeColor=#006EAF;" parent="310" vertex="1">
                    <mxGeometry x="10" y="230" width="430" height="190" as="geometry"/>
                </mxCell>
                <mxCell id="318" value="&lt;font color=&quot;#000000&quot; style=&quot;font-size: 15px;&quot;&gt;+ buildBaseUi(): void&lt;br style=&quot;font-size: 15px;&quot;&gt;&lt;/font&gt;" style="text;strokeColor=#4C0099;fillColor=none;align=left;verticalAlign=middle;spacingLeft=4;spacingRight=4;overflow=hidden;points=[[0,0.5],[1,0.5]];portConstraint=eastwest;rotatable=0;whiteSpace=wrap;html=1;strokeWidth=2;fontSize=15;" parent="317" vertex="1">
                    <mxGeometry y="30" width="430" height="40" as="geometry"/>
                </mxCell>
                <mxCell id="319" value="&lt;font color=&quot;#000000&quot; style=&quot;font-size: 15px;&quot;&gt;+ makeOrderService(): void&lt;br style=&quot;font-size: 15px;&quot;&gt;&lt;/font&gt;" style="text;strokeColor=#4C0099;fillColor=none;align=left;verticalAlign=middle;spacingLeft=4;spacingRight=4;overflow=hidden;points=[[0,0.5],[1,0.5]];portConstraint=eastwest;rotatable=0;whiteSpace=wrap;html=1;strokeWidth=2;fontSize=15;" parent="317" vertex="1">
                    <mxGeometry y="70" width="430" height="40" as="geometry"/>
                </mxCell>
                <mxCell id="320" value="&lt;font color=&quot;#000000&quot; style=&quot;font-size: 15px;&quot;&gt;+ last30DaysAnalaticsService(): void&lt;br style=&quot;font-size: 15px;&quot;&gt;&lt;/font&gt;" style="text;strokeColor=#4C0099;fillColor=none;align=left;verticalAlign=middle;spacingLeft=4;spacingRight=4;overflow=hidden;points=[[0,0.5],[1,0.5]];portConstraint=eastwest;rotatable=0;whiteSpace=wrap;html=1;strokeWidth=2;fontSize=15;" parent="317" vertex="1">
                    <mxGeometry y="110" width="430" height="40" as="geometry"/>
                </mxCell>
                <mxCell id="321" value="&lt;font color=&quot;#000000&quot; style=&quot;font-size: 15px;&quot;&gt;+ goBack(): void&lt;br style=&quot;font-size: 15px;&quot;&gt;&lt;/font&gt;" style="text;strokeColor=#4C0099;fillColor=none;align=left;verticalAlign=middle;spacingLeft=4;spacingRight=4;overflow=hidden;points=[[0,0.5],[1,0.5]];portConstraint=eastwest;rotatable=0;whiteSpace=wrap;html=1;strokeWidth=2;fontSize=15;" parent="317" vertex="1">
                    <mxGeometry y="150" width="430" height="40" as="geometry"/>
                </mxCell>
                <mxCell id="368" style="edgeStyle=orthogonalEdgeStyle;shape=flexArrow;html=1;exitX=0.5;exitY=1;exitDx=0;exitDy=0;dashed=1;" parent="1" source="322" edge="1">
                    <mxGeometry relative="1" as="geometry">
                        <mxPoint x="860" y="750.2424242424245" as="targetPoint"/>
                    </mxGeometry>
                </mxCell>
                <mxCell id="379" style="edgeStyle=orthogonalEdgeStyle;html=1;strokeWidth=2;fillColor=#0050ef;strokeColor=#001DBC;entryX=0;entryY=0.5;entryDx=0;entryDy=0;endArrow=diamond;endFill=0;" parent="1" source="322" target="369" edge="1">
                    <mxGeometry relative="1" as="geometry">
                        <mxPoint x="1180" y="-400" as="targetPoint"/>
                        <Array as="points">
                            <mxPoint x="120" y="655"/>
                            <mxPoint x="120" y="-405"/>
                        </Array>
                    </mxGeometry>
                </mxCell>
                <mxCell id="322" value="IObserver&amp;lt;Interface&amp;gt;" style="swimlane;whiteSpace=wrap;html=1;fillColor=#0050ef;fontColor=#ffffff;strokeColor=#001DBC;strokeWidth=2;" parent="1" vertex="1">
                    <mxGeometry x="630" y="560" width="450" height="190" as="geometry"/>
                </mxCell>
                <mxCell id="323" value="Attributes" style="swimlane;fontStyle=0;childLayout=stackLayout;horizontal=1;startSize=30;horizontalStack=0;resizeParent=1;resizeParentMax=0;resizeLast=0;collapsible=1;marginBottom=0;whiteSpace=wrap;html=1;strokeWidth=2;fillColor=#008a00;fontColor=#ffffff;strokeColor=#005700;" parent="322" vertex="1">
                    <mxGeometry x="10" y="30" width="430" height="60" as="geometry"/>
                </mxCell>
                <mxCell id="329" value="Methods" style="swimlane;fontStyle=0;childLayout=stackLayout;horizontal=1;startSize=30;horizontalStack=0;resizeParent=1;resizeParentMax=0;resizeLast=0;collapsible=1;marginBottom=0;whiteSpace=wrap;html=1;strokeWidth=2;fillColor=#1ba1e2;fontColor=#ffffff;strokeColor=#006EAF;" parent="322" vertex="1">
                    <mxGeometry x="10" y="100" width="430" height="70" as="geometry"/>
                </mxCell>
                <mxCell id="330" value="&lt;font color=&quot;#000000&quot; style=&quot;font-size: 15px;&quot;&gt;+ Update(): void&lt;br style=&quot;font-size: 15px;&quot;&gt;&lt;/font&gt;" style="text;strokeColor=#4C0099;fillColor=none;align=left;verticalAlign=middle;spacingLeft=4;spacingRight=4;overflow=hidden;points=[[0,0.5],[1,0.5]];portConstraint=eastwest;rotatable=0;whiteSpace=wrap;html=1;strokeWidth=2;fontSize=15;" parent="329" vertex="1">
                    <mxGeometry y="30" width="430" height="40" as="geometry"/>
                </mxCell>
                <mxCell id="365" style="edgeStyle=none;html=1;entryX=0.5;entryY=1;entryDx=0;entryDy=0;fillColor=#6a00ff;strokeColor=#3700CC;dashed=1;exitX=0.5;exitY=0;exitDx=0;exitDy=0;strokeWidth=2;" parent="1" source="334" target="322" edge="1">
                    <mxGeometry relative="1" as="geometry">
                        <Array as="points">
                            <mxPoint x="1375" y="840"/>
                            <mxPoint x="855" y="840"/>
                        </Array>
                    </mxGeometry>
                </mxCell>
                <mxCell id="433" style="edgeStyle=orthogonalEdgeStyle;html=1;entryX=0.5;entryY=0;entryDx=0;entryDy=0;strokeWidth=2;endArrow=none;endFill=0;fillColor=#1ba1e2;strokeColor=#006EAF;" parent="1" source="334" target="346" edge="1">
                    <mxGeometry relative="1" as="geometry">
                        <Array as="points">
                            <mxPoint x="345" y="1350"/>
                        </Array>
                    </mxGeometry>
                </mxCell>
                <mxCell id="334" value="MakeOrderUi" style="swimlane;whiteSpace=wrap;html=1;fillColor=#0050ef;fontColor=#ffffff;strokeColor=#001DBC;strokeWidth=2;" parent="1" vertex="1">
                    <mxGeometry x="1150" y="920" width="450" height="470" as="geometry"/>
                </mxCell>
                <mxCell id="335" value="Attributes" style="swimlane;fontStyle=0;childLayout=stackLayout;horizontal=1;startSize=30;horizontalStack=0;resizeParent=1;resizeParentMax=0;resizeLast=0;collapsible=1;marginBottom=0;whiteSpace=wrap;html=1;strokeWidth=2;fillColor=#008a00;fontColor=#ffffff;strokeColor=#005700;" parent="334" vertex="1">
                    <mxGeometry x="10" y="30" width="430" height="210" as="geometry"/>
                </mxCell>
                <mxCell id="401" value="&lt;font color=&quot;#000000&quot; style=&quot;font-size: 15px;&quot;&gt;- controller: MakeOrderController&lt;br style=&quot;font-size: 15px;&quot;&gt;&lt;/font&gt;" style="text;strokeColor=#4C0099;fillColor=none;align=left;verticalAlign=middle;spacingLeft=4;spacingRight=4;overflow=hidden;points=[[0,0.5],[1,0.5]];portConstraint=eastwest;rotatable=0;whiteSpace=wrap;html=1;strokeWidth=2;fontSize=15;" parent="335" vertex="1">
                    <mxGeometry y="30" width="430" height="30" as="geometry"/>
                </mxCell>
                <mxCell id="342" value="&lt;font color=&quot;#000000&quot; style=&quot;font-size: 15px;&quot;&gt;- cacher: Cacher&lt;br style=&quot;font-size: 15px;&quot;&gt;&lt;/font&gt;" style="text;strokeColor=#4C0099;fillColor=none;align=left;verticalAlign=middle;spacingLeft=4;spacingRight=4;overflow=hidden;points=[[0,0.5],[1,0.5]];portConstraint=eastwest;rotatable=0;whiteSpace=wrap;html=1;strokeWidth=2;fontSize=15;" parent="335" vertex="1">
                    <mxGeometry y="60" width="430" height="30" as="geometry"/>
                </mxCell>
                <mxCell id="336" value="&lt;font color=&quot;#000000&quot; style=&quot;font-size: 15px;&quot;&gt;- window: JFrame&lt;br style=&quot;font-size: 15px;&quot;&gt;&lt;/font&gt;" style="text;strokeColor=#4C0099;fillColor=none;align=left;verticalAlign=middle;spacingLeft=4;spacingRight=4;overflow=hidden;points=[[0,0.5],[1,0.5]];portConstraint=eastwest;rotatable=0;whiteSpace=wrap;html=1;strokeWidth=2;fontSize=15;" parent="335" vertex="1">
                    <mxGeometry y="90" width="430" height="30" as="geometry"/>
                </mxCell>
                <mxCell id="337" value="&lt;font color=&quot;#000000&quot; style=&quot;font-size: 15px;&quot;&gt;- backButton: JButton&lt;br style=&quot;font-size: 15px;&quot;&gt;&lt;/font&gt;" style="text;strokeColor=#4C0099;fillColor=none;align=left;verticalAlign=middle;spacingLeft=4;spacingRight=4;overflow=hidden;points=[[0,0.5],[1,0.5]];portConstraint=eastwest;rotatable=0;whiteSpace=wrap;html=1;strokeWidth=2;fontSize=15;" parent="335" vertex="1">
                    <mxGeometry y="120" width="430" height="30" as="geometry"/>
                </mxCell>
                <mxCell id="341" value="&lt;font color=&quot;#000000&quot; style=&quot;font-size: 15px;&quot;&gt;- produtsCards: ArrayList&amp;lt;ProductUi&amp;gt;&lt;br style=&quot;font-size: 15px;&quot;&gt;&lt;/font&gt;" style="text;strokeColor=#4C0099;fillColor=none;align=left;verticalAlign=middle;spacingLeft=4;spacingRight=4;overflow=hidden;points=[[0,0.5],[1,0.5]];portConstraint=eastwest;rotatable=0;whiteSpace=wrap;html=1;strokeWidth=2;fontSize=15;" parent="335" vertex="1">
                    <mxGeometry y="150" width="430" height="30" as="geometry"/>
                </mxCell>
                <mxCell id="343" value="&lt;font color=&quot;#000000&quot; style=&quot;font-size: 15px;&quot;&gt;- sellButton: JButton&lt;br style=&quot;font-size: 15px;&quot;&gt;&lt;/font&gt;" style="text;strokeColor=#4C0099;fillColor=none;align=left;verticalAlign=middle;spacingLeft=4;spacingRight=4;overflow=hidden;points=[[0,0.5],[1,0.5]];portConstraint=eastwest;rotatable=0;whiteSpace=wrap;html=1;strokeWidth=2;fontSize=15;" parent="335" vertex="1">
                    <mxGeometry y="180" width="430" height="30" as="geometry"/>
                </mxCell>
                <mxCell id="338" value="Methods" style="swimlane;fontStyle=0;childLayout=stackLayout;horizontal=1;startSize=30;horizontalStack=0;resizeParent=1;resizeParentMax=0;resizeLast=0;collapsible=1;marginBottom=0;whiteSpace=wrap;html=1;strokeWidth=2;fillColor=#1ba1e2;fontColor=#ffffff;strokeColor=#006EAF;" parent="334" vertex="1">
                    <mxGeometry x="10" y="270" width="430" height="190" as="geometry"/>
                </mxCell>
                <mxCell id="339" value="&lt;font color=&quot;#000000&quot; style=&quot;font-size: 15px;&quot;&gt;+ buildBaseUi(): void&lt;br style=&quot;font-size: 15px;&quot;&gt;&lt;/font&gt;" style="text;strokeColor=#4C0099;fillColor=none;align=left;verticalAlign=middle;spacingLeft=4;spacingRight=4;overflow=hidden;points=[[0,0.5],[1,0.5]];portConstraint=eastwest;rotatable=0;whiteSpace=wrap;html=1;strokeWidth=2;fontSize=15;" parent="338" vertex="1">
                    <mxGeometry y="30" width="430" height="40" as="geometry"/>
                </mxCell>
                <mxCell id="340" value="&lt;font color=&quot;#000000&quot; style=&quot;font-size: 15px;&quot;&gt;+ goBack(): void&lt;br style=&quot;font-size: 15px;&quot;&gt;&lt;/font&gt;" style="text;strokeColor=#4C0099;fillColor=none;align=left;verticalAlign=middle;spacingLeft=4;spacingRight=4;overflow=hidden;points=[[0,0.5],[1,0.5]];portConstraint=eastwest;rotatable=0;whiteSpace=wrap;html=1;strokeWidth=2;fontSize=15;" parent="338" vertex="1">
                    <mxGeometry y="70" width="430" height="40" as="geometry"/>
                </mxCell>
                <mxCell id="344" value="&lt;font color=&quot;#000000&quot; style=&quot;font-size: 15px;&quot;&gt;+ sell(): void&lt;br style=&quot;font-size: 15px;&quot;&gt;&lt;/font&gt;" style="text;strokeColor=#4C0099;fillColor=none;align=left;verticalAlign=middle;spacingLeft=4;spacingRight=4;overflow=hidden;points=[[0,0.5],[1,0.5]];portConstraint=eastwest;rotatable=0;whiteSpace=wrap;html=1;strokeWidth=2;fontSize=15;" parent="338" vertex="1">
                    <mxGeometry y="110" width="430" height="40" as="geometry"/>
                </mxCell>
                <mxCell id="345" value="&lt;font color=&quot;#000000&quot; style=&quot;font-size: 15px;&quot;&gt;- prepareTheOrder(): void&lt;br style=&quot;font-size: 15px;&quot;&gt;&lt;/font&gt;" style="text;strokeColor=#4C0099;fillColor=none;align=left;verticalAlign=middle;spacingLeft=4;spacingRight=4;overflow=hidden;points=[[0,0.5],[1,0.5]];portConstraint=eastwest;rotatable=0;whiteSpace=wrap;html=1;strokeWidth=2;fontSize=15;" parent="338" vertex="1">
                    <mxGeometry y="150" width="430" height="40" as="geometry"/>
                </mxCell>
                <mxCell id="346" value="ReceiptUi" style="swimlane;whiteSpace=wrap;html=1;fillColor=#0050ef;fontColor=#ffffff;strokeColor=#001DBC;strokeWidth=2;" parent="1" vertex="1">
                    <mxGeometry x="120" y="1455" width="450" height="390" as="geometry"/>
                </mxCell>
                <mxCell id="347" value="Attributes" style="swimlane;fontStyle=0;childLayout=stackLayout;horizontal=1;startSize=30;horizontalStack=0;resizeParent=1;resizeParentMax=0;resizeLast=0;collapsible=1;marginBottom=0;whiteSpace=wrap;html=1;strokeWidth=2;fillColor=#008a00;fontColor=#ffffff;strokeColor=#005700;" parent="346" vertex="1">
                    <mxGeometry x="10" y="30" width="430" height="180" as="geometry"/>
                </mxCell>
                <mxCell id="348" value="&lt;font color=&quot;#000000&quot; style=&quot;font-size: 15px;&quot;&gt;- cacher: Cacher&lt;br style=&quot;font-size: 15px;&quot;&gt;&lt;/font&gt;" style="text;strokeColor=#4C0099;fillColor=none;align=left;verticalAlign=middle;spacingLeft=4;spacingRight=4;overflow=hidden;points=[[0,0.5],[1,0.5]];portConstraint=eastwest;rotatable=0;whiteSpace=wrap;html=1;strokeWidth=2;fontSize=15;" parent="347" vertex="1">
                    <mxGeometry y="30" width="430" height="30" as="geometry"/>
                </mxCell>
                <mxCell id="352" value="&lt;font color=&quot;#000000&quot; style=&quot;font-size: 15px;&quot;&gt;- order: Order&lt;br style=&quot;font-size: 15px;&quot;&gt;&lt;/font&gt;" style="text;strokeColor=#4C0099;fillColor=none;align=left;verticalAlign=middle;spacingLeft=4;spacingRight=4;overflow=hidden;points=[[0,0.5],[1,0.5]];portConstraint=eastwest;rotatable=0;whiteSpace=wrap;html=1;strokeWidth=2;fontSize=15;" parent="347" vertex="1">
                    <mxGeometry y="60" width="430" height="30" as="geometry"/>
                </mxCell>
                <mxCell id="349" value="&lt;font color=&quot;#000000&quot; style=&quot;font-size: 15px;&quot;&gt;- window: JFrame&lt;br style=&quot;font-size: 15px;&quot;&gt;&lt;/font&gt;" style="text;strokeColor=#4C0099;fillColor=none;align=left;verticalAlign=middle;spacingLeft=4;spacingRight=4;overflow=hidden;points=[[0,0.5],[1,0.5]];portConstraint=eastwest;rotatable=0;whiteSpace=wrap;html=1;strokeWidth=2;fontSize=15;" parent="347" vertex="1">
                    <mxGeometry y="90" width="430" height="30" as="geometry"/>
                </mxCell>
                <mxCell id="350" value="&lt;font color=&quot;#000000&quot; style=&quot;font-size: 15px;&quot;&gt;- backButton: JButton&lt;br style=&quot;font-size: 15px;&quot;&gt;&lt;/font&gt;" style="text;strokeColor=#4C0099;fillColor=none;align=left;verticalAlign=middle;spacingLeft=4;spacingRight=4;overflow=hidden;points=[[0,0.5],[1,0.5]];portConstraint=eastwest;rotatable=0;whiteSpace=wrap;html=1;strokeWidth=2;fontSize=15;" parent="347" vertex="1">
                    <mxGeometry y="120" width="430" height="30" as="geometry"/>
                </mxCell>
                <mxCell id="351" value="&lt;font color=&quot;#000000&quot; style=&quot;font-size: 15px;&quot;&gt;- printButton: JButton&lt;br style=&quot;font-size: 15px;&quot;&gt;&lt;/font&gt;" style="text;strokeColor=#4C0099;fillColor=none;align=left;verticalAlign=middle;spacingLeft=4;spacingRight=4;overflow=hidden;points=[[0,0.5],[1,0.5]];portConstraint=eastwest;rotatable=0;whiteSpace=wrap;html=1;strokeWidth=2;fontSize=15;" parent="347" vertex="1">
                    <mxGeometry y="150" width="430" height="30" as="geometry"/>
                </mxCell>
                <mxCell id="353" value="Methods" style="swimlane;fontStyle=0;childLayout=stackLayout;horizontal=1;startSize=30;horizontalStack=0;resizeParent=1;resizeParentMax=0;resizeLast=0;collapsible=1;marginBottom=0;whiteSpace=wrap;html=1;strokeWidth=2;fillColor=#1ba1e2;fontColor=#ffffff;strokeColor=#006EAF;" parent="346" vertex="1">
                    <mxGeometry x="10" y="230" width="430" height="150" as="geometry"/>
                </mxCell>
                <mxCell id="354" value="&lt;font color=&quot;#000000&quot; style=&quot;font-size: 15px;&quot;&gt;+ buildBaseUi(): void&lt;br style=&quot;font-size: 15px;&quot;&gt;&lt;/font&gt;" style="text;strokeColor=#4C0099;fillColor=none;align=left;verticalAlign=middle;spacingLeft=4;spacingRight=4;overflow=hidden;points=[[0,0.5],[1,0.5]];portConstraint=eastwest;rotatable=0;whiteSpace=wrap;html=1;strokeWidth=2;fontSize=15;" parent="353" vertex="1">
                    <mxGeometry y="30" width="430" height="40" as="geometry"/>
                </mxCell>
                <mxCell id="355" value="&lt;font color=&quot;#000000&quot; style=&quot;font-size: 15px;&quot;&gt;+ goBack(): void&lt;br style=&quot;font-size: 15px;&quot;&gt;&lt;/font&gt;" style="text;strokeColor=#4C0099;fillColor=none;align=left;verticalAlign=middle;spacingLeft=4;spacingRight=4;overflow=hidden;points=[[0,0.5],[1,0.5]];portConstraint=eastwest;rotatable=0;whiteSpace=wrap;html=1;strokeWidth=2;fontSize=15;" parent="353" vertex="1">
                    <mxGeometry y="70" width="430" height="40" as="geometry"/>
                </mxCell>
                <mxCell id="356" value="&lt;font color=&quot;#000000&quot; style=&quot;font-size: 15px;&quot;&gt;+ print(): void&lt;br style=&quot;font-size: 15px;&quot;&gt;&lt;/font&gt;" style="text;strokeColor=#4C0099;fillColor=none;align=left;verticalAlign=middle;spacingLeft=4;spacingRight=4;overflow=hidden;points=[[0,0.5],[1,0.5]];portConstraint=eastwest;rotatable=0;whiteSpace=wrap;html=1;strokeWidth=2;fontSize=15;" parent="353" vertex="1">
                    <mxGeometry y="110" width="430" height="40" as="geometry"/>
                </mxCell>
                <mxCell id="366" style="edgeStyle=none;html=1;fillColor=#6a00ff;strokeColor=#3700CC;dashed=1;strokeWidth=2;" parent="1" source="358" edge="1">
                    <mxGeometry relative="1" as="geometry">
                        <mxPoint x="860" y="750" as="targetPoint"/>
                    </mxGeometry>
                </mxCell>
                <mxCell id="358" value="AnalaticsUi" style="swimlane;whiteSpace=wrap;html=1;fillColor=#0050ef;fontColor=#ffffff;strokeColor=#001DBC;strokeWidth=2;" parent="1" vertex="1">
                    <mxGeometry x="630" y="920" width="450" height="370" as="geometry"/>
                </mxCell>
                <mxCell id="359" value="Attributes" style="swimlane;fontStyle=0;childLayout=stackLayout;horizontal=1;startSize=30;horizontalStack=0;resizeParent=1;resizeParentMax=0;resizeLast=0;collapsible=1;marginBottom=0;whiteSpace=wrap;html=1;strokeWidth=2;fillColor=#008a00;fontColor=#ffffff;strokeColor=#005700;" parent="358" vertex="1">
                    <mxGeometry x="10" y="30" width="430" height="180" as="geometry"/>
                </mxCell>
                <mxCell id="430" value="&lt;font color=&quot;#000000&quot; style=&quot;font-size: 15px;&quot;&gt;- cacher: Cacher&lt;br style=&quot;font-size: 15px;&quot;&gt;&lt;/font&gt;" style="text;strokeColor=#4C0099;fillColor=none;align=left;verticalAlign=middle;spacingLeft=4;spacingRight=4;overflow=hidden;points=[[0,0.5],[1,0.5]];portConstraint=eastwest;rotatable=0;whiteSpace=wrap;html=1;strokeWidth=2;fontSize=15;" parent="359" vertex="1">
                    <mxGeometry y="30" width="430" height="30" as="geometry"/>
                </mxCell>
                <mxCell id="400" value="&lt;font color=&quot;#000000&quot; style=&quot;font-size: 15px;&quot;&gt;- controller: AnalaticsController&lt;br style=&quot;font-size: 15px;&quot;&gt;&lt;/font&gt;" style="text;strokeColor=#4C0099;fillColor=none;align=left;verticalAlign=middle;spacingLeft=4;spacingRight=4;overflow=hidden;points=[[0,0.5],[1,0.5]];portConstraint=eastwest;rotatable=0;whiteSpace=wrap;html=1;strokeWidth=2;fontSize=15;" parent="359" vertex="1">
                    <mxGeometry y="60" width="430" height="30" as="geometry"/>
                </mxCell>
                <mxCell id="360" value="&lt;font color=&quot;#000000&quot; style=&quot;font-size: 15px;&quot;&gt;- window: JFrame&lt;br style=&quot;font-size: 15px;&quot;&gt;&lt;/font&gt;" style="text;strokeColor=#4C0099;fillColor=none;align=left;verticalAlign=middle;spacingLeft=4;spacingRight=4;overflow=hidden;points=[[0,0.5],[1,0.5]];portConstraint=eastwest;rotatable=0;whiteSpace=wrap;html=1;strokeWidth=2;fontSize=15;" parent="359" vertex="1">
                    <mxGeometry y="90" width="430" height="30" as="geometry"/>
                </mxCell>
                <mxCell id="429" value="&lt;font color=&quot;#000000&quot; style=&quot;font-size: 15px;&quot;&gt;- backButton: JButton&lt;br style=&quot;font-size: 15px;&quot;&gt;&lt;/font&gt;" style="text;strokeColor=#4C0099;fillColor=none;align=left;verticalAlign=middle;spacingLeft=4;spacingRight=4;overflow=hidden;points=[[0,0.5],[1,0.5]];portConstraint=eastwest;rotatable=0;whiteSpace=wrap;html=1;strokeWidth=2;fontSize=15;" parent="359" vertex="1">
                    <mxGeometry y="120" width="430" height="30" as="geometry"/>
                </mxCell>
                <mxCell id="361" value="&lt;font color=&quot;#000000&quot; style=&quot;font-size: 15px;&quot;&gt;- backButton: JButton&lt;br style=&quot;font-size: 15px;&quot;&gt;&lt;/font&gt;" style="text;strokeColor=#4C0099;fillColor=none;align=left;verticalAlign=middle;spacingLeft=4;spacingRight=4;overflow=hidden;points=[[0,0.5],[1,0.5]];portConstraint=eastwest;rotatable=0;whiteSpace=wrap;html=1;strokeWidth=2;fontSize=15;" parent="359" vertex="1">
                    <mxGeometry y="150" width="430" height="30" as="geometry"/>
                </mxCell>
                <mxCell id="362" value="Methods" style="swimlane;fontStyle=0;childLayout=stackLayout;horizontal=1;startSize=30;horizontalStack=0;resizeParent=1;resizeParentMax=0;resizeLast=0;collapsible=1;marginBottom=0;whiteSpace=wrap;html=1;strokeWidth=2;fillColor=#1ba1e2;fontColor=#ffffff;strokeColor=#006EAF;" parent="358" vertex="1">
                    <mxGeometry x="10" y="230" width="430" height="110" as="geometry"/>
                </mxCell>
                <mxCell id="363" value="&lt;font color=&quot;#000000&quot; style=&quot;font-size: 15px;&quot;&gt;+ buildBaseUi(): void&lt;br style=&quot;font-size: 15px;&quot;&gt;&lt;/font&gt;" style="text;strokeColor=#4C0099;fillColor=none;align=left;verticalAlign=middle;spacingLeft=4;spacingRight=4;overflow=hidden;points=[[0,0.5],[1,0.5]];portConstraint=eastwest;rotatable=0;whiteSpace=wrap;html=1;strokeWidth=2;fontSize=15;" parent="362" vertex="1">
                    <mxGeometry y="30" width="430" height="40" as="geometry"/>
                </mxCell>
                <mxCell id="364" value="&lt;font color=&quot;#000000&quot; style=&quot;font-size: 15px;&quot;&gt;+ goBack(): void&lt;br style=&quot;font-size: 15px;&quot;&gt;&lt;/font&gt;" style="text;strokeColor=#4C0099;fillColor=none;align=left;verticalAlign=middle;spacingLeft=4;spacingRight=4;overflow=hidden;points=[[0,0.5],[1,0.5]];portConstraint=eastwest;rotatable=0;whiteSpace=wrap;html=1;strokeWidth=2;fontSize=15;" parent="362" vertex="1">
                    <mxGeometry y="70" width="430" height="40" as="geometry"/>
                </mxCell>
                <mxCell id="369" value="Observable" style="swimlane;whiteSpace=wrap;html=1;fillColor=#0050ef;fontColor=#ffffff;strokeColor=#001DBC;strokeWidth=2;" parent="1" vertex="1">
                    <mxGeometry x="1200" y="-530" width="460" height="250" as="geometry"/>
                </mxCell>
                <mxCell id="370" value="Attributes" style="swimlane;fontStyle=0;childLayout=stackLayout;horizontal=1;startSize=30;horizontalStack=0;resizeParent=1;resizeParentMax=0;resizeLast=0;collapsible=1;marginBottom=0;whiteSpace=wrap;html=1;strokeWidth=2;fillColor=#008a00;fontColor=#ffffff;strokeColor=#005700;" parent="369" vertex="1">
                    <mxGeometry x="10" y="30" width="430" height="60" as="geometry"/>
                </mxCell>
                <mxCell id="371" value="&lt;font color=&quot;#000000&quot; style=&quot;font-size: 15px;&quot;&gt;# views: ArrayList&amp;lt;IObserver&amp;gt;&lt;br style=&quot;font-size: 15px;&quot;&gt;&lt;/font&gt;" style="text;strokeColor=#4C0099;fillColor=none;align=left;verticalAlign=middle;spacingLeft=4;spacingRight=4;overflow=hidden;points=[[0,0.5],[1,0.5]];portConstraint=eastwest;rotatable=0;whiteSpace=wrap;html=1;strokeWidth=2;fontSize=15;" parent="370" vertex="1">
                    <mxGeometry y="30" width="430" height="30" as="geometry"/>
                </mxCell>
                <mxCell id="373" value="Methods" style="swimlane;fontStyle=0;childLayout=stackLayout;horizontal=1;startSize=30;horizontalStack=0;resizeParent=1;resizeParentMax=0;resizeLast=0;collapsible=1;marginBottom=0;whiteSpace=wrap;html=1;strokeWidth=2;fillColor=#1ba1e2;fontColor=#ffffff;strokeColor=#006EAF;" parent="369" vertex="1">
                    <mxGeometry x="10" y="110" width="430" height="120" as="geometry"/>
                </mxCell>
                <mxCell id="374" value="&lt;font color=&quot;#000000&quot; style=&quot;font-size: 15px;&quot;&gt;- register(IObserver iObserver): void&lt;br style=&quot;font-size: 15px;&quot;&gt;&lt;/font&gt;" style="text;strokeColor=#4C0099;fillColor=none;align=left;verticalAlign=middle;spacingLeft=4;spacingRight=4;overflow=hidden;points=[[0,0.5],[1,0.5]];portConstraint=eastwest;rotatable=0;whiteSpace=wrap;html=1;strokeWidth=2;fontSize=15;" parent="373" vertex="1">
                    <mxGeometry y="30" width="430" height="30" as="geometry"/>
                </mxCell>
                <mxCell id="375" value="&lt;font color=&quot;#000000&quot; style=&quot;font-size: 15px;&quot;&gt;+ unRegister(iObserver iObserver): void&lt;br style=&quot;font-size: 15px;&quot;&gt;&lt;/font&gt;" style="text;strokeColor=#4C0099;fillColor=none;align=left;verticalAlign=middle;spacingLeft=4;spacingRight=4;overflow=hidden;points=[[0,0.5],[1,0.5]];portConstraint=eastwest;rotatable=0;whiteSpace=wrap;html=1;strokeWidth=2;fontSize=15;" parent="373" vertex="1">
                    <mxGeometry y="60" width="430" height="30" as="geometry"/>
                </mxCell>
                <mxCell id="376" value="&lt;font color=&quot;#000000&quot; style=&quot;font-size: 15px;&quot;&gt;+ notify(): void&lt;br style=&quot;font-size: 15px;&quot;&gt;&lt;/font&gt;" style="text;strokeColor=#4C0099;fillColor=none;align=left;verticalAlign=middle;spacingLeft=4;spacingRight=4;overflow=hidden;points=[[0,0.5],[1,0.5]];portConstraint=eastwest;rotatable=0;whiteSpace=wrap;html=1;strokeWidth=2;fontSize=15;" parent="373" vertex="1">
                    <mxGeometry y="90" width="430" height="30" as="geometry"/>
                </mxCell>
                <mxCell id="380" value="&lt;font color=&quot;#000000&quot;&gt;0...*&lt;/font&gt;" style="text;html=1;align=center;verticalAlign=middle;resizable=0;points=[];autosize=1;strokeColor=none;fillColor=none;" parent="1" vertex="1">
                    <mxGeometry x="580" y="615" width="40" height="30" as="geometry"/>
                </mxCell>
                <mxCell id="427" style="edgeStyle=orthogonalEdgeStyle;html=1;fillColor=#6a00ff;strokeColor=#3700CC;strokeWidth=2;endArrow=diamond;endFill=0;" parent="1" source="406" edge="1">
                    <mxGeometry relative="1" as="geometry">
                        <mxPoint x="1600" y="1143" as="targetPoint"/>
                    </mxGeometry>
                </mxCell>
                <mxCell id="406" value="ProductUi" style="swimlane;whiteSpace=wrap;html=1;fillColor=#0050ef;fontColor=#ffffff;strokeColor=#001DBC;strokeWidth=2;" parent="1" vertex="1">
                    <mxGeometry x="1675" y="920" width="450" height="445" as="geometry"/>
                </mxCell>
                <mxCell id="407" value="Attributes" style="swimlane;fontStyle=0;childLayout=stackLayout;horizontal=1;startSize=30;horizontalStack=0;resizeParent=1;resizeParentMax=0;resizeLast=0;collapsible=1;marginBottom=0;whiteSpace=wrap;html=1;strokeWidth=2;fillColor=#008a00;fontColor=#ffffff;strokeColor=#005700;" parent="406" vertex="1">
                    <mxGeometry x="10" y="30" width="430" height="240" as="geometry"/>
                </mxCell>
                <mxCell id="419" value="&lt;font color=&quot;#000000&quot; style=&quot;font-size: 15px;&quot;&gt;- photoCover: JPanel&lt;br style=&quot;font-size: 15px;&quot;&gt;&lt;/font&gt;" style="text;strokeColor=#4C0099;fillColor=none;align=left;verticalAlign=middle;spacingLeft=4;spacingRight=4;overflow=hidden;points=[[0,0.5],[1,0.5]];portConstraint=eastwest;rotatable=0;whiteSpace=wrap;html=1;strokeWidth=2;fontSize=15;" parent="407" vertex="1">
                    <mxGeometry y="30" width="430" height="30" as="geometry"/>
                </mxCell>
                <mxCell id="421" value="&lt;font color=&quot;#000000&quot; style=&quot;font-size: 15px;&quot;&gt;- nameField: JLabel&lt;br style=&quot;font-size: 15px;&quot;&gt;&lt;/font&gt;" style="text;strokeColor=#4C0099;fillColor=none;align=left;verticalAlign=middle;spacingLeft=4;spacingRight=4;overflow=hidden;points=[[0,0.5],[1,0.5]];portConstraint=eastwest;rotatable=0;whiteSpace=wrap;html=1;strokeWidth=2;fontSize=15;" parent="407" vertex="1">
                    <mxGeometry y="60" width="430" height="30" as="geometry"/>
                </mxCell>
                <mxCell id="420" value="&lt;font color=&quot;#000000&quot; style=&quot;font-size: 15px;&quot;&gt;- priceField: JLabel&lt;br style=&quot;font-size: 15px;&quot;&gt;&lt;/font&gt;" style="text;strokeColor=#4C0099;fillColor=none;align=left;verticalAlign=middle;spacingLeft=4;spacingRight=4;overflow=hidden;points=[[0,0.5],[1,0.5]];portConstraint=eastwest;rotatable=0;whiteSpace=wrap;html=1;strokeWidth=2;fontSize=15;" parent="407" vertex="1">
                    <mxGeometry y="90" width="430" height="30" as="geometry"/>
                </mxCell>
                <mxCell id="422" value="&lt;font color=&quot;#000000&quot; style=&quot;font-size: 15px;&quot;&gt;- ItemsNumber: int&lt;br style=&quot;font-size: 15px;&quot;&gt;&lt;/font&gt;" style="text;strokeColor=#4C0099;fillColor=none;align=left;verticalAlign=middle;spacingLeft=4;spacingRight=4;overflow=hidden;points=[[0,0.5],[1,0.5]];portConstraint=eastwest;rotatable=0;whiteSpace=wrap;html=1;strokeWidth=2;fontSize=15;" parent="407" vertex="1">
                    <mxGeometry y="120" width="430" height="30" as="geometry"/>
                </mxCell>
                <mxCell id="424" value="&lt;font color=&quot;#000000&quot; style=&quot;font-size: 15px;&quot;&gt;- addButton: JButton&lt;/font&gt;&lt;span style=&quot;color: rgba(0, 0, 0, 0); font-family: monospace; font-size: 0px;&quot;&gt;%3CmxGraphModel%3E%3Croot%3E%3CmxCell%20id%3D%220%22%2F%3E%3CmxCell%20id%3D%221%22%20parent%3D%220%22%2F%3E%3CmxCell%20id%3D%222%22%20value%3D%22%26lt%3Bfont%20color%3D%26quot%3B%23000000%26quot%3B%20style%3D%26quot%3Bfont-size%3A%2015px%3B%26quot%3B%26gt%3B-%20priceField%3A%20JLabel%26lt%3Bbr%20style%3D%26quot%3Bfont-size%3A%2015px%3B%26quot%3B%26gt%3B%26lt%3B%2Ffont%26gt%3B%22%20style%3D%22text%3BstrokeColor%3D%234C0099%3BfillColor%3Dnone%3Balign%3Dleft%3BverticalAlign%3Dmiddle%3BspacingLeft%3D4%3BspacingRight%3D4%3Boverflow%3Dhidden%3Bpoints%3D%5B%5B0%2C0.5%5D%2C%5B1%2C0.5%5D%5D%3BportConstraint%3Deastwest%3Brotatable%3D0%3BwhiteSpace%3Dwrap%3Bhtml%3D1%3BstrokeWidth%3D2%3BfontSize%3D15%3B%22%20vertex%3D%221%22%20parent%3D%221%22%3E%3CmxGeometry%20x%3D%22-370%22%20y%3D%221575%22%20width%3D%22430%22%20height%3D%2230%22%20as%3D%22geometry%22%2F%3E%3C%2FmxCell%3E%3C%2Froot%3E%3C%2FmxGraphModel%3E&lt;/span&gt;&lt;font color=&quot;#000000&quot; style=&quot;font-size: 15px;&quot;&gt;&lt;br style=&quot;font-size: 15px;&quot;&gt;&lt;/font&gt;" style="text;strokeColor=#4C0099;fillColor=none;align=left;verticalAlign=middle;spacingLeft=4;spacingRight=4;overflow=hidden;points=[[0,0.5],[1,0.5]];portConstraint=eastwest;rotatable=0;whiteSpace=wrap;html=1;strokeWidth=2;fontSize=15;" parent="407" vertex="1">
                    <mxGeometry y="150" width="430" height="30" as="geometry"/>
                </mxCell>
                <mxCell id="423" value="&lt;font color=&quot;#000000&quot; style=&quot;font-size: 15px;&quot;&gt;- removeButton: JButton&lt;/font&gt;&lt;span style=&quot;color: rgba(0, 0, 0, 0); font-family: monospace; font-size: 0px;&quot;&gt;%3CmxGraphModel%3E%3Croot%3E%3CmxCell%20id%3D%220%22%2F%3E%3CmxCell%20id%3D%221%22%20parent%3D%220%22%2F%3E%3CmxCell%20id%3D%222%22%20value%3D%22%26lt%3Bfont%20color%3D%26quot%3B%23000000%26quot%3B%20style%3D%26quot%3Bfont-size%3A%2015px%3B%26quot%3B%26gt%3B-%20priceField%3A%20JLabel%26lt%3Bbr%20style%3D%26quot%3Bfont-size%3A%2015px%3B%26quot%3B%26gt%3B%26lt%3B%2Ffont%26gt%3B%22%20style%3D%22text%3BstrokeColor%3D%234C0099%3BfillColor%3Dnone%3Balign%3Dleft%3BverticalAlign%3Dmiddle%3BspacingLeft%3D4%3BspacingRight%3D4%3Boverflow%3Dhidden%3Bpoints%3D%5B%5B0%2C0.5%5D%2C%5B1%2C0.5%5D%5D%3BportConstraint%3Deastwest%3Brotatable%3D0%3BwhiteSpace%3Dwrap%3Bhtml%3D1%3BstrokeWidth%3D2%3BfontSize%3D15%3B%22%20vertex%3D%221%22%20parent%3D%221%22%3E%3CmxGeometry%20x%3D%22-370%22%20y%3D%221575%22%20width%3D%22430%22%20height%3D%2230%22%20as%3D%22geometry%22%2F%3E%3C%2FmxCell%3E%3C%2Froot%3E%3C%2FmxGraphModel%3E&lt;/span&gt;&lt;font color=&quot;#000000&quot; style=&quot;font-size: 15px;&quot;&gt;&lt;br style=&quot;font-size: 15px;&quot;&gt;&lt;/font&gt;" style="text;strokeColor=#4C0099;fillColor=none;align=left;verticalAlign=middle;spacingLeft=4;spacingRight=4;overflow=hidden;points=[[0,0.5],[1,0.5]];portConstraint=eastwest;rotatable=0;whiteSpace=wrap;html=1;strokeWidth=2;fontSize=15;" parent="407" vertex="1">
                    <mxGeometry y="180" width="430" height="30" as="geometry"/>
                </mxCell>
                <mxCell id="425" value="&lt;font color=&quot;#000000&quot; style=&quot;font-size: 15px;&quot;&gt;- Product: product&lt;/font&gt;&lt;span style=&quot;color: rgba(0, 0, 0, 0); font-family: monospace; font-size: 0px;&quot;&gt;%3CmxGraphModel%3E%3Croot%3E%3CmxCell%20id%3D%220%22%2F%3E%3CmxCell%20id%3D%221%22%20parent%3D%220%22%2F%3E%3CmxCell%20id%3D%222%22%20value%3D%22%26lt%3Bfont%20color%3D%26quot%3B%23000000%26quot%3B%20style%3D%26quot%3Bfont-size%3A%2015px%3B%26quot%3B%26gt%3B-%20priceField%3A%20JLabel%26lt%3Bbr%20style%3D%26quot%3Bfont-size%3A%2015px%3B%26quot%3B%26gt%3B%26lt%3B%2Ffont%26gt%3B%22%20style%3D%22text%3BstrokeColor%3D%234C0099%3BfillColor%3Dnone%3Balign%3Dleft%3BverticalAlign%3Dmiddle%3BspacingLeft%3D4%3BspacingRight%3D4%3Boverflow%3Dhidden%3Bpoints%3D%5B%5B0%2C0.5%5D%2C%5B1%2C0.5%5D%5D%3BportConstraint%3Deastwest%3Brotatable%3D0%3BwhiteSpace%3Dwrap%3Bhtml%3D1%3BstrokeWidth%3D2%3BfontSize%3D15%3B%22%20vertex%3D%221%22%20parent%3D%221%22%3E%3CmxGeometry%20x%3D%22-370%22%20y%3D%221575%22%20width%3D%22430%22%20height%3D%2230%22%20as%3D%22geometry%22%2F%3E%3C%2FmxCell%3E%3C%2Froot%3E%3C%2FmxGraphModel%3E&lt;/span&gt;&lt;font color=&quot;#000000&quot; style=&quot;font-size: 15px;&quot;&gt;&lt;br style=&quot;font-size: 15px;&quot;&gt;&lt;/font&gt;" style="text;strokeColor=#4C0099;fillColor=none;align=left;verticalAlign=middle;spacingLeft=4;spacingRight=4;overflow=hidden;points=[[0,0.5],[1,0.5]];portConstraint=eastwest;rotatable=0;whiteSpace=wrap;html=1;strokeWidth=2;fontSize=15;" parent="407" vertex="1">
                    <mxGeometry y="210" width="430" height="30" as="geometry"/>
                </mxCell>
                <mxCell id="413" value="Methods" style="swimlane;fontStyle=0;childLayout=stackLayout;horizontal=1;startSize=30;horizontalStack=0;resizeParent=1;resizeParentMax=0;resizeLast=0;collapsible=1;marginBottom=0;whiteSpace=wrap;html=1;strokeWidth=2;fillColor=#1ba1e2;fontColor=#ffffff;strokeColor=#006EAF;" parent="406" vertex="1">
                    <mxGeometry x="10" y="285" width="430" height="150" as="geometry"/>
                </mxCell>
                <mxCell id="414" value="&lt;font color=&quot;#000000&quot; style=&quot;font-size: 15px;&quot;&gt;+ buildBaseUi(Product product): void&lt;br style=&quot;font-size: 15px;&quot;&gt;&lt;/font&gt;" style="text;strokeColor=#4C0099;fillColor=none;align=left;verticalAlign=middle;spacingLeft=4;spacingRight=4;overflow=hidden;points=[[0,0.5],[1,0.5]];portConstraint=eastwest;rotatable=0;whiteSpace=wrap;html=1;strokeWidth=2;fontSize=15;" parent="413" vertex="1">
                    <mxGeometry y="30" width="430" height="40" as="geometry"/>
                </mxCell>
                <mxCell id="416" value="&lt;font color=&quot;#000000&quot; style=&quot;font-size: 15px;&quot;&gt;+ addItem(): void&lt;br style=&quot;font-size: 15px;&quot;&gt;&lt;/font&gt;" style="text;strokeColor=#4C0099;fillColor=none;align=left;verticalAlign=middle;spacingLeft=4;spacingRight=4;overflow=hidden;points=[[0,0.5],[1,0.5]];portConstraint=eastwest;rotatable=0;whiteSpace=wrap;html=1;strokeWidth=2;fontSize=15;" parent="413" vertex="1">
                    <mxGeometry y="70" width="430" height="40" as="geometry"/>
                </mxCell>
                <mxCell id="426" value="&lt;font color=&quot;#000000&quot; style=&quot;font-size: 15px;&quot;&gt;+ removeItem(): void&lt;br style=&quot;font-size: 15px;&quot;&gt;&lt;/font&gt;" style="text;strokeColor=#4C0099;fillColor=none;align=left;verticalAlign=middle;spacingLeft=4;spacingRight=4;overflow=hidden;points=[[0,0.5],[1,0.5]];portConstraint=eastwest;rotatable=0;whiteSpace=wrap;html=1;strokeWidth=2;fontSize=15;" parent="413" vertex="1">
                    <mxGeometry y="110" width="430" height="40" as="geometry"/>
                </mxCell>
                <mxCell id="436" value="&lt;font color=&quot;#000000&quot;&gt;0..1&lt;/font&gt;" style="text;html=1;align=center;verticalAlign=middle;resizable=0;points=[];autosize=1;strokeColor=none;fillColor=none;" vertex="1" parent="1">
                    <mxGeometry x="3280" y="265" width="40" height="30" as="geometry"/>
                </mxCell>
                <mxCell id="437" value="&lt;font color=&quot;#000000&quot;&gt;0..1&lt;/font&gt;" style="text;html=1;align=center;verticalAlign=middle;resizable=0;points=[];autosize=1;strokeColor=none;fillColor=none;" vertex="1" parent="1">
                    <mxGeometry x="1980" y="360" width="40" height="30" as="geometry"/>
                </mxCell>
                <mxCell id="438" value="0..1" style="text;html=1;align=center;verticalAlign=middle;resizable=0;points=[];autosize=1;strokeColor=none;fillColor=none;fontColor=#000000;" vertex="1" parent="1">
                    <mxGeometry x="1000" y="445" width="40" height="30" as="geometry"/>
                </mxCell>
                <mxCell id="439" value="0..1" style="text;html=1;align=center;verticalAlign=middle;resizable=0;points=[];autosize=1;strokeColor=none;fillColor=none;fontColor=#000000;" vertex="1" parent="1">
                    <mxGeometry x="370" y="475" width="40" height="30" as="geometry"/>
                </mxCell>
                <mxCell id="440" value="0..1" style="text;html=1;align=center;verticalAlign=middle;resizable=0;points=[];autosize=1;strokeColor=none;fillColor=none;fontColor=#000000;" vertex="1" parent="1">
                    <mxGeometry x="3440" y="1865" width="40" height="30" as="geometry"/>
                </mxCell>
                <mxCell id="441" value="0..1" style="text;html=1;align=center;verticalAlign=middle;resizable=0;points=[];autosize=1;strokeColor=none;fillColor=none;fontColor=#000000;" vertex="1" parent="1">
                    <mxGeometry x="320" y="1270" width="40" height="30" as="geometry"/>
                </mxCell>
                <mxCell id="442" value="1" style="text;html=1;align=center;verticalAlign=middle;resizable=0;points=[];autosize=1;strokeColor=none;fillColor=none;fontColor=#000000;" vertex="1" parent="1">
                    <mxGeometry x="365" y="2085" width="30" height="30" as="geometry"/>
                </mxCell>
                <mxCell id="443" value="1" style="text;html=1;align=center;verticalAlign=middle;resizable=0;points=[];autosize=1;strokeColor=none;fillColor=none;fontColor=#000000;" vertex="1" parent="1">
                    <mxGeometry x="365" y="2120" width="30" height="30" as="geometry"/>
                </mxCell>
                <mxCell id="444" value="1" style="text;html=1;align=center;verticalAlign=middle;resizable=0;points=[];autosize=1;strokeColor=none;fillColor=none;fontColor=#000000;" vertex="1" parent="1">
                    <mxGeometry x="365" y="2160" width="30" height="30" as="geometry"/>
                </mxCell>
                <mxCell id="445" value="1" style="text;html=1;align=center;verticalAlign=middle;resizable=0;points=[];autosize=1;strokeColor=none;fillColor=none;fontColor=#000000;" vertex="1" parent="1">
                    <mxGeometry x="820" y="2210" width="30" height="30" as="geometry"/>
                </mxCell>
                <mxCell id="446" value="1" style="text;html=1;align=center;verticalAlign=middle;resizable=0;points=[];autosize=1;strokeColor=none;fillColor=none;fontColor=#000000;" vertex="1" parent="1">
                    <mxGeometry x="1420" y="2210" width="30" height="30" as="geometry"/>
                </mxCell>
                <mxCell id="447" value="1..*" style="text;html=1;align=center;verticalAlign=middle;resizable=0;points=[];autosize=1;strokeColor=none;fillColor=none;fontColor=#000000;" vertex="1" parent="1">
                    <mxGeometry x="1970" y="2210" width="40" height="30" as="geometry"/>
                </mxCell>
                <mxCell id="448" value="1" style="text;html=1;align=center;verticalAlign=middle;resizable=0;points=[];autosize=1;strokeColor=none;fillColor=none;fontColor=#000000;" vertex="1" parent="1">
                    <mxGeometry x="2450" y="2210" width="30" height="30" as="geometry"/>
                </mxCell>
                <mxCell id="449" value="1" style="text;html=1;align=center;verticalAlign=middle;resizable=0;points=[];autosize=1;strokeColor=none;fillColor=none;fontColor=#000000;" vertex="1" parent="1">
                    <mxGeometry x="2450" y="2150" width="30" height="30" as="geometry"/>
                </mxCell>
                <mxCell id="450" value="0..*" style="text;html=1;align=center;verticalAlign=middle;resizable=0;points=[];autosize=1;strokeColor=none;fillColor=none;fontColor=#000000;" vertex="1" parent="1">
                    <mxGeometry x="1635" y="1110" width="40" height="30" as="geometry"/>
                </mxCell>
                <mxCell id="451" value="0..1" style="text;html=1;align=center;verticalAlign=middle;resizable=0;points=[];autosize=1;strokeColor=none;fillColor=none;fontColor=#000000;" vertex="1" parent="1">
                    <mxGeometry x="3440" y="2090" width="40" height="30" as="geometry"/>
                </mxCell>
                <mxCell id="452" value="0..1" style="text;html=1;align=center;verticalAlign=middle;resizable=0;points=[];autosize=1;strokeColor=none;fillColor=none;fontColor=#000000;" vertex="1" parent="1">
                    <mxGeometry x="870" y="1295" width="40" height="30" as="geometry"/>
                </mxCell>
                <mxCell id="454" value="0..1" style="text;html=1;align=center;verticalAlign=middle;resizable=0;points=[];autosize=1;strokeColor=none;fillColor=none;fontColor=#000000;" vertex="1" parent="1">
                    <mxGeometry x="3440" y="2395" width="40" height="30" as="geometry"/>
                </mxCell>
                <mxCell id="455" value="0..1" style="text;html=1;align=center;verticalAlign=middle;resizable=0;points=[];autosize=1;strokeColor=none;fillColor=none;fontColor=#000000;" vertex="1" parent="1">
                    <mxGeometry x="1410" y="1385" width="40" height="30" as="geometry"/>
                </mxCell>
            </root>
        </mxGraphModel>
    </diagram>
</mxfile>